%TF.GenerationSoftware,KiCad,Pcbnew,5.1.9-73d0e3b20d~88~ubuntu20.04.1*%
%TF.CreationDate,2021-05-23T20:46:25+02:00*%
%TF.ProjectId,ValveLord,56616c76-654c-46f7-9264-2e6b69636164,rev?*%
%TF.SameCoordinates,Original*%
%TF.FileFunction,Legend,Top*%
%TF.FilePolarity,Positive*%
%FSLAX46Y46*%
G04 Gerber Fmt 4.6, Leading zero omitted, Abs format (unit mm)*
G04 Created by KiCad (PCBNEW 5.1.9-73d0e3b20d~88~ubuntu20.04.1) date 2021-05-23 20:46:25*
%MOMM*%
%LPD*%
G01*
G04 APERTURE LIST*
%ADD10C,0.120000*%
%ADD11C,0.150000*%
G04 APERTURE END LIST*
D10*
X212000000Y-100000000D02*
X198000000Y-100000000D01*
X212000000Y-123000000D02*
X198000000Y-123000000D01*
D11*
X197109836Y-106904761D02*
X197526502Y-108904761D01*
X198443169Y-106904761D01*
X198836026Y-108333333D02*
X199788407Y-108333333D01*
X198574122Y-108904761D02*
X199490788Y-106904761D01*
X199907455Y-108904761D01*
X201526502Y-108904761D02*
X200574122Y-108904761D01*
X200824122Y-106904761D01*
X202157455Y-106904761D02*
X202574122Y-108904761D01*
X203490788Y-106904761D01*
X204038407Y-107857142D02*
X204705074Y-107857142D01*
X204859836Y-108904761D02*
X203907455Y-108904761D01*
X204157455Y-106904761D01*
X205109836Y-106904761D01*
X206669360Y-108904761D02*
X205716979Y-108904761D01*
X205966979Y-106904761D01*
X207966979Y-106904761D02*
X208347931Y-106904761D01*
X208526502Y-107000000D01*
X208693169Y-107190476D01*
X208740788Y-107571428D01*
X208657455Y-108238095D01*
X208514598Y-108619047D01*
X208300312Y-108809523D01*
X208097931Y-108904761D01*
X207716979Y-108904761D01*
X207538407Y-108809523D01*
X207371741Y-108619047D01*
X207324122Y-108238095D01*
X207407455Y-107571428D01*
X207550312Y-107190476D01*
X207764598Y-107000000D01*
X207966979Y-106904761D01*
X210574122Y-108904761D02*
X210026502Y-107952380D01*
X209431264Y-108904761D02*
X209681264Y-106904761D01*
X210443169Y-106904761D01*
X210621741Y-107000000D01*
X210705074Y-107095238D01*
X210776502Y-107285714D01*
X210740788Y-107571428D01*
X210621741Y-107761904D01*
X210514598Y-107857142D01*
X210312217Y-107952380D01*
X209550312Y-107952380D01*
X211431264Y-108904761D02*
X211681264Y-106904761D01*
X212157455Y-106904761D01*
X212431264Y-107000000D01*
X212597931Y-107190476D01*
X212669360Y-107380952D01*
X212716979Y-107761904D01*
X212681264Y-108047619D01*
X212538407Y-108428571D01*
X212419360Y-108619047D01*
X212205074Y-108809523D01*
X211907455Y-108904761D01*
X211431264Y-108904761D01*
X231547619Y-100404761D02*
X230547619Y-100738095D01*
X231547619Y-101071428D01*
X230547619Y-101547619D02*
X230595238Y-101452380D01*
X230642857Y-101404761D01*
X230738095Y-101357142D01*
X231023809Y-101357142D01*
X231119047Y-101404761D01*
X231166666Y-101452380D01*
X231214285Y-101547619D01*
X231214285Y-101690476D01*
X231166666Y-101785714D01*
X231119047Y-101833333D01*
X231023809Y-101880952D01*
X230738095Y-101880952D01*
X230642857Y-101833333D01*
X230595238Y-101785714D01*
X230547619Y-101690476D01*
X230547619Y-101547619D01*
X230547619Y-102452380D02*
X230595238Y-102357142D01*
X230690476Y-102309523D01*
X231547619Y-102309523D01*
X231214285Y-103261904D02*
X230547619Y-103261904D01*
X231214285Y-102833333D02*
X230690476Y-102833333D01*
X230595238Y-102880952D01*
X230547619Y-102976190D01*
X230547619Y-103119047D01*
X230595238Y-103214285D01*
X230642857Y-103261904D01*
X230547619Y-103738095D02*
X231214285Y-103738095D01*
X231119047Y-103738095D02*
X231166666Y-103785714D01*
X231214285Y-103880952D01*
X231214285Y-104023809D01*
X231166666Y-104119047D01*
X231071428Y-104166666D01*
X230547619Y-104166666D01*
X231071428Y-104166666D02*
X231166666Y-104214285D01*
X231214285Y-104309523D01*
X231214285Y-104452380D01*
X231166666Y-104547619D01*
X231071428Y-104595238D01*
X230547619Y-104595238D01*
X230595238Y-105452380D02*
X230547619Y-105357142D01*
X230547619Y-105166666D01*
X230595238Y-105071428D01*
X230690476Y-105023809D01*
X231071428Y-105023809D01*
X231166666Y-105071428D01*
X231214285Y-105166666D01*
X231214285Y-105357142D01*
X231166666Y-105452380D01*
X231071428Y-105500000D01*
X230976190Y-105500000D01*
X230880952Y-105023809D01*
X178500000Y-102880952D02*
X178452380Y-102976190D01*
X178452380Y-103119047D01*
X178500000Y-103261904D01*
X178595238Y-103357142D01*
X178690476Y-103404761D01*
X178880952Y-103452380D01*
X179023809Y-103452380D01*
X179214285Y-103404761D01*
X179309523Y-103357142D01*
X179404761Y-103261904D01*
X179452380Y-103119047D01*
X179452380Y-103023809D01*
X179404761Y-102880952D01*
X179357142Y-102833333D01*
X179023809Y-102833333D01*
X179023809Y-103023809D01*
X179452380Y-101976190D02*
X178928571Y-101976190D01*
X178833333Y-102023809D01*
X178785714Y-102119047D01*
X178785714Y-102309523D01*
X178833333Y-102404761D01*
X179404761Y-101976190D02*
X179452380Y-102071428D01*
X179452380Y-102309523D01*
X179404761Y-102404761D01*
X179309523Y-102452380D01*
X179214285Y-102452380D01*
X179119047Y-102404761D01*
X179071428Y-102309523D01*
X179071428Y-102071428D01*
X179023809Y-101976190D01*
X179452380Y-101500000D02*
X178785714Y-101500000D01*
X178452380Y-101500000D02*
X178500000Y-101547619D01*
X178547619Y-101500000D01*
X178500000Y-101452380D01*
X178452380Y-101500000D01*
X178547619Y-101500000D01*
X178785714Y-101023809D02*
X179452380Y-101023809D01*
X178880952Y-101023809D02*
X178833333Y-100976190D01*
X178785714Y-100880952D01*
X178785714Y-100738095D01*
X178833333Y-100642857D01*
X178928571Y-100595238D01*
X179452380Y-100595238D01*
D10*
%TO.C,RV2*%
X218380000Y-100380000D02*
X225620000Y-100380000D01*
X213880000Y-100380000D02*
X230120000Y-100380000D01*
X213880000Y-108120000D02*
X230120000Y-108120000D01*
X230120000Y-108120000D02*
X230120000Y-100380000D01*
X213880000Y-108120000D02*
X213880000Y-100380000D01*
%TO.C,RV1*%
X184380000Y-100380000D02*
X191620000Y-100380000D01*
X179880000Y-100380000D02*
X196120000Y-100380000D01*
X179880000Y-108120000D02*
X196120000Y-108120000D01*
X196120000Y-108120000D02*
X196120000Y-100380000D01*
X179880000Y-108120000D02*
X179880000Y-100380000D01*
%TO.C,U1*%
X215239067Y-113000000D02*
G75*
G03*
X215239067Y-113000000I-10239067J0D01*
G01*
%TO.C,J7*%
X223000000Y-121330000D02*
X221670000Y-121330000D01*
X221670000Y-121330000D02*
X221670000Y-120000000D01*
X221670000Y-118730000D02*
X221670000Y-116130000D01*
X224330000Y-116130000D02*
X221670000Y-116130000D01*
X224330000Y-118730000D02*
X224330000Y-116130000D01*
X224330000Y-118730000D02*
X221670000Y-118730000D01*
%TO.C,R4*%
X191772936Y-115735000D02*
X192227064Y-115735000D01*
X191772936Y-114265000D02*
X192227064Y-114265000D01*
%TO.C,R3*%
X189265000Y-110772936D02*
X189265000Y-111227064D01*
X190735000Y-110772936D02*
X190735000Y-111227064D01*
%TO.C,R2*%
X218227064Y-120265000D02*
X217772936Y-120265000D01*
X218227064Y-121735000D02*
X217772936Y-121735000D01*
%TO.C,R1*%
X223227064Y-109265000D02*
X222772936Y-109265000D01*
X223227064Y-110735000D02*
X222772936Y-110735000D01*
%TO.C,C4*%
X211261252Y-101265000D02*
X210738748Y-101265000D01*
X211261252Y-102735000D02*
X210738748Y-102735000D01*
%TO.C,C3*%
X192265000Y-110738748D02*
X192265000Y-111261252D01*
X193735000Y-110738748D02*
X193735000Y-111261252D01*
%TO.C,C1*%
X217738748Y-115735000D02*
X218261252Y-115735000D01*
X217738748Y-114265000D02*
X218261252Y-114265000D01*
%TO.C,R7*%
X218227064Y-117265000D02*
X217772936Y-117265000D01*
X218227064Y-118735000D02*
X217772936Y-118735000D01*
%TO.C,R6*%
X185772936Y-111735000D02*
X186227064Y-111735000D01*
X185772936Y-110265000D02*
X186227064Y-110265000D01*
%TO.C,R5*%
X186227064Y-114265000D02*
X185772936Y-114265000D01*
X186227064Y-115735000D02*
X185772936Y-115735000D01*
%TO.C,J6*%
X181000000Y-117670000D02*
X182330000Y-117670000D01*
X182330000Y-117670000D02*
X182330000Y-119000000D01*
X182330000Y-120210000D02*
X182330000Y-120330000D01*
X179670000Y-120210000D02*
X179670000Y-120330000D01*
X179670000Y-120330000D02*
X182330000Y-120330000D01*
%TO.C,C6*%
X218261252Y-109265000D02*
X217738748Y-109265000D01*
X218261252Y-110735000D02*
X217738748Y-110735000D01*
%TO.C,C5*%
X193725000Y-117695225D02*
X193225000Y-117695225D01*
X193475000Y-117445225D02*
X193475000Y-117945225D01*
X192284000Y-122851000D02*
X191716000Y-122851000D01*
X192518000Y-122811000D02*
X191482000Y-122811000D01*
X192677000Y-122771000D02*
X191323000Y-122771000D01*
X192805000Y-122731000D02*
X191195000Y-122731000D01*
X192915000Y-122691000D02*
X191085000Y-122691000D01*
X193011000Y-122651000D02*
X190989000Y-122651000D01*
X193098000Y-122611000D02*
X190902000Y-122611000D01*
X193178000Y-122571000D02*
X190822000Y-122571000D01*
X190960000Y-122531000D02*
X190749000Y-122531000D01*
X193251000Y-122531000D02*
X193040000Y-122531000D01*
X190960000Y-122491000D02*
X190681000Y-122491000D01*
X193319000Y-122491000D02*
X193040000Y-122491000D01*
X190960000Y-122451000D02*
X190617000Y-122451000D01*
X193383000Y-122451000D02*
X193040000Y-122451000D01*
X190960000Y-122411000D02*
X190557000Y-122411000D01*
X193443000Y-122411000D02*
X193040000Y-122411000D01*
X190960000Y-122371000D02*
X190500000Y-122371000D01*
X193500000Y-122371000D02*
X193040000Y-122371000D01*
X190960000Y-122331000D02*
X190446000Y-122331000D01*
X193554000Y-122331000D02*
X193040000Y-122331000D01*
X190960000Y-122291000D02*
X190395000Y-122291000D01*
X193605000Y-122291000D02*
X193040000Y-122291000D01*
X190960000Y-122251000D02*
X190347000Y-122251000D01*
X193653000Y-122251000D02*
X193040000Y-122251000D01*
X190960000Y-122211000D02*
X190301000Y-122211000D01*
X193699000Y-122211000D02*
X193040000Y-122211000D01*
X190960000Y-122171000D02*
X190257000Y-122171000D01*
X193743000Y-122171000D02*
X193040000Y-122171000D01*
X190960000Y-122131000D02*
X190215000Y-122131000D01*
X193785000Y-122131000D02*
X193040000Y-122131000D01*
X190960000Y-122091000D02*
X190174000Y-122091000D01*
X193826000Y-122091000D02*
X193040000Y-122091000D01*
X190960000Y-122051000D02*
X190136000Y-122051000D01*
X193864000Y-122051000D02*
X193040000Y-122051000D01*
X190960000Y-122011000D02*
X190099000Y-122011000D01*
X193901000Y-122011000D02*
X193040000Y-122011000D01*
X190960000Y-121971000D02*
X190063000Y-121971000D01*
X193937000Y-121971000D02*
X193040000Y-121971000D01*
X190960000Y-121931000D02*
X190029000Y-121931000D01*
X193971000Y-121931000D02*
X193040000Y-121931000D01*
X190960000Y-121891000D02*
X189996000Y-121891000D01*
X194004000Y-121891000D02*
X193040000Y-121891000D01*
X190960000Y-121851000D02*
X189965000Y-121851000D01*
X194035000Y-121851000D02*
X193040000Y-121851000D01*
X190960000Y-121811000D02*
X189935000Y-121811000D01*
X194065000Y-121811000D02*
X193040000Y-121811000D01*
X190960000Y-121771000D02*
X189905000Y-121771000D01*
X194095000Y-121771000D02*
X193040000Y-121771000D01*
X190960000Y-121731000D02*
X189878000Y-121731000D01*
X194122000Y-121731000D02*
X193040000Y-121731000D01*
X190960000Y-121691000D02*
X189851000Y-121691000D01*
X194149000Y-121691000D02*
X193040000Y-121691000D01*
X190960000Y-121651000D02*
X189825000Y-121651000D01*
X194175000Y-121651000D02*
X193040000Y-121651000D01*
X190960000Y-121611000D02*
X189800000Y-121611000D01*
X194200000Y-121611000D02*
X193040000Y-121611000D01*
X190960000Y-121571000D02*
X189776000Y-121571000D01*
X194224000Y-121571000D02*
X193040000Y-121571000D01*
X190960000Y-121531000D02*
X189753000Y-121531000D01*
X194247000Y-121531000D02*
X193040000Y-121531000D01*
X190960000Y-121491000D02*
X189732000Y-121491000D01*
X194268000Y-121491000D02*
X193040000Y-121491000D01*
X190960000Y-121451000D02*
X189710000Y-121451000D01*
X194290000Y-121451000D02*
X193040000Y-121451000D01*
X190960000Y-121411000D02*
X189690000Y-121411000D01*
X194310000Y-121411000D02*
X193040000Y-121411000D01*
X190960000Y-121371000D02*
X189671000Y-121371000D01*
X194329000Y-121371000D02*
X193040000Y-121371000D01*
X190960000Y-121331000D02*
X189652000Y-121331000D01*
X194348000Y-121331000D02*
X193040000Y-121331000D01*
X190960000Y-121291000D02*
X189635000Y-121291000D01*
X194365000Y-121291000D02*
X193040000Y-121291000D01*
X190960000Y-121251000D02*
X189618000Y-121251000D01*
X194382000Y-121251000D02*
X193040000Y-121251000D01*
X190960000Y-121211000D02*
X189602000Y-121211000D01*
X194398000Y-121211000D02*
X193040000Y-121211000D01*
X190960000Y-121171000D02*
X189586000Y-121171000D01*
X194414000Y-121171000D02*
X193040000Y-121171000D01*
X190960000Y-121131000D02*
X189572000Y-121131000D01*
X194428000Y-121131000D02*
X193040000Y-121131000D01*
X190960000Y-121091000D02*
X189558000Y-121091000D01*
X194442000Y-121091000D02*
X193040000Y-121091000D01*
X190960000Y-121051000D02*
X189545000Y-121051000D01*
X194455000Y-121051000D02*
X193040000Y-121051000D01*
X190960000Y-121011000D02*
X189532000Y-121011000D01*
X194468000Y-121011000D02*
X193040000Y-121011000D01*
X190960000Y-120971000D02*
X189520000Y-120971000D01*
X194480000Y-120971000D02*
X193040000Y-120971000D01*
X190960000Y-120930000D02*
X189509000Y-120930000D01*
X194491000Y-120930000D02*
X193040000Y-120930000D01*
X190960000Y-120890000D02*
X189499000Y-120890000D01*
X194501000Y-120890000D02*
X193040000Y-120890000D01*
X190960000Y-120850000D02*
X189489000Y-120850000D01*
X194511000Y-120850000D02*
X193040000Y-120850000D01*
X190960000Y-120810000D02*
X189480000Y-120810000D01*
X194520000Y-120810000D02*
X193040000Y-120810000D01*
X190960000Y-120770000D02*
X189472000Y-120770000D01*
X194528000Y-120770000D02*
X193040000Y-120770000D01*
X190960000Y-120730000D02*
X189464000Y-120730000D01*
X194536000Y-120730000D02*
X193040000Y-120730000D01*
X190960000Y-120690000D02*
X189457000Y-120690000D01*
X194543000Y-120690000D02*
X193040000Y-120690000D01*
X190960000Y-120650000D02*
X189450000Y-120650000D01*
X194550000Y-120650000D02*
X193040000Y-120650000D01*
X190960000Y-120610000D02*
X189444000Y-120610000D01*
X194556000Y-120610000D02*
X193040000Y-120610000D01*
X190960000Y-120570000D02*
X189439000Y-120570000D01*
X194561000Y-120570000D02*
X193040000Y-120570000D01*
X190960000Y-120530000D02*
X189435000Y-120530000D01*
X194565000Y-120530000D02*
X193040000Y-120530000D01*
X190960000Y-120490000D02*
X189431000Y-120490000D01*
X194569000Y-120490000D02*
X193040000Y-120490000D01*
X194573000Y-120450000D02*
X189427000Y-120450000D01*
X194576000Y-120410000D02*
X189424000Y-120410000D01*
X194578000Y-120370000D02*
X189422000Y-120370000D01*
X194579000Y-120330000D02*
X189421000Y-120330000D01*
X194580000Y-120290000D02*
X189420000Y-120290000D01*
X194580000Y-120250000D02*
X189420000Y-120250000D01*
X194620000Y-120250000D02*
G75*
G03*
X194620000Y-120250000I-2620000J0D01*
G01*
%TO.C,J5*%
X229000000Y-113670000D02*
X230330000Y-113670000D01*
X230330000Y-113670000D02*
X230330000Y-115000000D01*
X230330000Y-116210000D02*
X230330000Y-116330000D01*
X227670000Y-116210000D02*
X227670000Y-116330000D01*
X227670000Y-116330000D02*
X230330000Y-116330000D01*
%TO.C,J3*%
X227670000Y-120330000D02*
X230330000Y-120330000D01*
X227670000Y-120210000D02*
X227670000Y-120330000D01*
X230330000Y-120210000D02*
X230330000Y-120330000D01*
X230330000Y-117670000D02*
X230330000Y-119000000D01*
X229000000Y-117670000D02*
X230330000Y-117670000D01*
%TO.C,J1*%
X179670000Y-112330000D02*
X182330000Y-112330000D01*
X179670000Y-112210000D02*
X179670000Y-112330000D01*
X182330000Y-112210000D02*
X182330000Y-112330000D01*
X182330000Y-109670000D02*
X182330000Y-111000000D01*
X181000000Y-109670000D02*
X182330000Y-109670000D01*
%TO.C,J2*%
X179670000Y-116330000D02*
X182330000Y-116330000D01*
X179670000Y-116210000D02*
X179670000Y-116330000D01*
X182330000Y-116210000D02*
X182330000Y-116330000D01*
X182330000Y-113670000D02*
X182330000Y-115000000D01*
X181000000Y-113670000D02*
X182330000Y-113670000D01*
%TO.C,J4*%
X227670000Y-112330000D02*
X230330000Y-112330000D01*
X227670000Y-112210000D02*
X227670000Y-112330000D01*
X230330000Y-112210000D02*
X230330000Y-112330000D01*
X230330000Y-109670000D02*
X230330000Y-111000000D01*
X229000000Y-109670000D02*
X230330000Y-109670000D01*
%TO.C,C2*%
X187725000Y-117695225D02*
X187225000Y-117695225D01*
X187475000Y-117445225D02*
X187475000Y-117945225D01*
X186284000Y-122851000D02*
X185716000Y-122851000D01*
X186518000Y-122811000D02*
X185482000Y-122811000D01*
X186677000Y-122771000D02*
X185323000Y-122771000D01*
X186805000Y-122731000D02*
X185195000Y-122731000D01*
X186915000Y-122691000D02*
X185085000Y-122691000D01*
X187011000Y-122651000D02*
X184989000Y-122651000D01*
X187098000Y-122611000D02*
X184902000Y-122611000D01*
X187178000Y-122571000D02*
X184822000Y-122571000D01*
X184960000Y-122531000D02*
X184749000Y-122531000D01*
X187251000Y-122531000D02*
X187040000Y-122531000D01*
X184960000Y-122491000D02*
X184681000Y-122491000D01*
X187319000Y-122491000D02*
X187040000Y-122491000D01*
X184960000Y-122451000D02*
X184617000Y-122451000D01*
X187383000Y-122451000D02*
X187040000Y-122451000D01*
X184960000Y-122411000D02*
X184557000Y-122411000D01*
X187443000Y-122411000D02*
X187040000Y-122411000D01*
X184960000Y-122371000D02*
X184500000Y-122371000D01*
X187500000Y-122371000D02*
X187040000Y-122371000D01*
X184960000Y-122331000D02*
X184446000Y-122331000D01*
X187554000Y-122331000D02*
X187040000Y-122331000D01*
X184960000Y-122291000D02*
X184395000Y-122291000D01*
X187605000Y-122291000D02*
X187040000Y-122291000D01*
X184960000Y-122251000D02*
X184347000Y-122251000D01*
X187653000Y-122251000D02*
X187040000Y-122251000D01*
X184960000Y-122211000D02*
X184301000Y-122211000D01*
X187699000Y-122211000D02*
X187040000Y-122211000D01*
X184960000Y-122171000D02*
X184257000Y-122171000D01*
X187743000Y-122171000D02*
X187040000Y-122171000D01*
X184960000Y-122131000D02*
X184215000Y-122131000D01*
X187785000Y-122131000D02*
X187040000Y-122131000D01*
X184960000Y-122091000D02*
X184174000Y-122091000D01*
X187826000Y-122091000D02*
X187040000Y-122091000D01*
X184960000Y-122051000D02*
X184136000Y-122051000D01*
X187864000Y-122051000D02*
X187040000Y-122051000D01*
X184960000Y-122011000D02*
X184099000Y-122011000D01*
X187901000Y-122011000D02*
X187040000Y-122011000D01*
X184960000Y-121971000D02*
X184063000Y-121971000D01*
X187937000Y-121971000D02*
X187040000Y-121971000D01*
X184960000Y-121931000D02*
X184029000Y-121931000D01*
X187971000Y-121931000D02*
X187040000Y-121931000D01*
X184960000Y-121891000D02*
X183996000Y-121891000D01*
X188004000Y-121891000D02*
X187040000Y-121891000D01*
X184960000Y-121851000D02*
X183965000Y-121851000D01*
X188035000Y-121851000D02*
X187040000Y-121851000D01*
X184960000Y-121811000D02*
X183935000Y-121811000D01*
X188065000Y-121811000D02*
X187040000Y-121811000D01*
X184960000Y-121771000D02*
X183905000Y-121771000D01*
X188095000Y-121771000D02*
X187040000Y-121771000D01*
X184960000Y-121731000D02*
X183878000Y-121731000D01*
X188122000Y-121731000D02*
X187040000Y-121731000D01*
X184960000Y-121691000D02*
X183851000Y-121691000D01*
X188149000Y-121691000D02*
X187040000Y-121691000D01*
X184960000Y-121651000D02*
X183825000Y-121651000D01*
X188175000Y-121651000D02*
X187040000Y-121651000D01*
X184960000Y-121611000D02*
X183800000Y-121611000D01*
X188200000Y-121611000D02*
X187040000Y-121611000D01*
X184960000Y-121571000D02*
X183776000Y-121571000D01*
X188224000Y-121571000D02*
X187040000Y-121571000D01*
X184960000Y-121531000D02*
X183753000Y-121531000D01*
X188247000Y-121531000D02*
X187040000Y-121531000D01*
X184960000Y-121491000D02*
X183732000Y-121491000D01*
X188268000Y-121491000D02*
X187040000Y-121491000D01*
X184960000Y-121451000D02*
X183710000Y-121451000D01*
X188290000Y-121451000D02*
X187040000Y-121451000D01*
X184960000Y-121411000D02*
X183690000Y-121411000D01*
X188310000Y-121411000D02*
X187040000Y-121411000D01*
X184960000Y-121371000D02*
X183671000Y-121371000D01*
X188329000Y-121371000D02*
X187040000Y-121371000D01*
X184960000Y-121331000D02*
X183652000Y-121331000D01*
X188348000Y-121331000D02*
X187040000Y-121331000D01*
X184960000Y-121291000D02*
X183635000Y-121291000D01*
X188365000Y-121291000D02*
X187040000Y-121291000D01*
X184960000Y-121251000D02*
X183618000Y-121251000D01*
X188382000Y-121251000D02*
X187040000Y-121251000D01*
X184960000Y-121211000D02*
X183602000Y-121211000D01*
X188398000Y-121211000D02*
X187040000Y-121211000D01*
X184960000Y-121171000D02*
X183586000Y-121171000D01*
X188414000Y-121171000D02*
X187040000Y-121171000D01*
X184960000Y-121131000D02*
X183572000Y-121131000D01*
X188428000Y-121131000D02*
X187040000Y-121131000D01*
X184960000Y-121091000D02*
X183558000Y-121091000D01*
X188442000Y-121091000D02*
X187040000Y-121091000D01*
X184960000Y-121051000D02*
X183545000Y-121051000D01*
X188455000Y-121051000D02*
X187040000Y-121051000D01*
X184960000Y-121011000D02*
X183532000Y-121011000D01*
X188468000Y-121011000D02*
X187040000Y-121011000D01*
X184960000Y-120971000D02*
X183520000Y-120971000D01*
X188480000Y-120971000D02*
X187040000Y-120971000D01*
X184960000Y-120930000D02*
X183509000Y-120930000D01*
X188491000Y-120930000D02*
X187040000Y-120930000D01*
X184960000Y-120890000D02*
X183499000Y-120890000D01*
X188501000Y-120890000D02*
X187040000Y-120890000D01*
X184960000Y-120850000D02*
X183489000Y-120850000D01*
X188511000Y-120850000D02*
X187040000Y-120850000D01*
X184960000Y-120810000D02*
X183480000Y-120810000D01*
X188520000Y-120810000D02*
X187040000Y-120810000D01*
X184960000Y-120770000D02*
X183472000Y-120770000D01*
X188528000Y-120770000D02*
X187040000Y-120770000D01*
X184960000Y-120730000D02*
X183464000Y-120730000D01*
X188536000Y-120730000D02*
X187040000Y-120730000D01*
X184960000Y-120690000D02*
X183457000Y-120690000D01*
X188543000Y-120690000D02*
X187040000Y-120690000D01*
X184960000Y-120650000D02*
X183450000Y-120650000D01*
X188550000Y-120650000D02*
X187040000Y-120650000D01*
X184960000Y-120610000D02*
X183444000Y-120610000D01*
X188556000Y-120610000D02*
X187040000Y-120610000D01*
X184960000Y-120570000D02*
X183439000Y-120570000D01*
X188561000Y-120570000D02*
X187040000Y-120570000D01*
X184960000Y-120530000D02*
X183435000Y-120530000D01*
X188565000Y-120530000D02*
X187040000Y-120530000D01*
X184960000Y-120490000D02*
X183431000Y-120490000D01*
X188569000Y-120490000D02*
X187040000Y-120490000D01*
X188573000Y-120450000D02*
X183427000Y-120450000D01*
X188576000Y-120410000D02*
X183424000Y-120410000D01*
X188578000Y-120370000D02*
X183422000Y-120370000D01*
X188579000Y-120330000D02*
X183421000Y-120330000D01*
X188580000Y-120290000D02*
X183420000Y-120290000D01*
X188580000Y-120250000D02*
X183420000Y-120250000D01*
X188620000Y-120250000D02*
G75*
G03*
X188620000Y-120250000I-2620000J0D01*
G01*
%TO.C,RV2*%
D11*
X215452380Y-102595238D02*
X214976190Y-102928571D01*
X215452380Y-103166666D02*
X214452380Y-103166666D01*
X214452380Y-102785714D01*
X214500000Y-102690476D01*
X214547619Y-102642857D01*
X214642857Y-102595238D01*
X214785714Y-102595238D01*
X214880952Y-102642857D01*
X214928571Y-102690476D01*
X214976190Y-102785714D01*
X214976190Y-103166666D01*
X214452380Y-102309523D02*
X215452380Y-101976190D01*
X214452380Y-101642857D01*
X214547619Y-101357142D02*
X214500000Y-101309523D01*
X214452380Y-101214285D01*
X214452380Y-100976190D01*
X214500000Y-100880952D01*
X214547619Y-100833333D01*
X214642857Y-100785714D01*
X214738095Y-100785714D01*
X214880952Y-100833333D01*
X215452380Y-101404761D01*
X215452380Y-100785714D01*
%TO.C,RV1*%
X181452380Y-102595238D02*
X180976190Y-102928571D01*
X181452380Y-103166666D02*
X180452380Y-103166666D01*
X180452380Y-102785714D01*
X180500000Y-102690476D01*
X180547619Y-102642857D01*
X180642857Y-102595238D01*
X180785714Y-102595238D01*
X180880952Y-102642857D01*
X180928571Y-102690476D01*
X180976190Y-102785714D01*
X180976190Y-103166666D01*
X180452380Y-102309523D02*
X181452380Y-101976190D01*
X180452380Y-101642857D01*
X181452380Y-100785714D02*
X181452380Y-101357142D01*
X181452380Y-101071428D02*
X180452380Y-101071428D01*
X180595238Y-101166666D01*
X180690476Y-101261904D01*
X180738095Y-101357142D01*
%TO.C,U1*%
X204238095Y-101452380D02*
X204238095Y-102261904D01*
X204285714Y-102357142D01*
X204333333Y-102404761D01*
X204428571Y-102452380D01*
X204619047Y-102452380D01*
X204714285Y-102404761D01*
X204761904Y-102357142D01*
X204809523Y-102261904D01*
X204809523Y-101452380D01*
X205809523Y-102452380D02*
X205238095Y-102452380D01*
X205523809Y-102452380D02*
X205523809Y-101452380D01*
X205428571Y-101595238D01*
X205333333Y-101690476D01*
X205238095Y-101738095D01*
X202833333Y-105928571D02*
X203166666Y-105928571D01*
X203309523Y-106452380D02*
X202833333Y-106452380D01*
X202833333Y-105452380D01*
X203309523Y-105452380D01*
X204309523Y-106357142D02*
X204261904Y-106404761D01*
X204119047Y-106452380D01*
X204023809Y-106452380D01*
X203880952Y-106404761D01*
X203785714Y-106309523D01*
X203738095Y-106214285D01*
X203690476Y-106023809D01*
X203690476Y-105880952D01*
X203738095Y-105690476D01*
X203785714Y-105595238D01*
X203880952Y-105500000D01*
X204023809Y-105452380D01*
X204119047Y-105452380D01*
X204261904Y-105500000D01*
X204309523Y-105547619D01*
X205309523Y-106357142D02*
X205261904Y-106404761D01*
X205119047Y-106452380D01*
X205023809Y-106452380D01*
X204880952Y-106404761D01*
X204785714Y-106309523D01*
X204738095Y-106214285D01*
X204690476Y-106023809D01*
X204690476Y-105880952D01*
X204738095Y-105690476D01*
X204785714Y-105595238D01*
X204880952Y-105500000D01*
X205023809Y-105452380D01*
X205119047Y-105452380D01*
X205261904Y-105500000D01*
X205309523Y-105547619D01*
X205880952Y-105880952D02*
X205785714Y-105833333D01*
X205738095Y-105785714D01*
X205690476Y-105690476D01*
X205690476Y-105642857D01*
X205738095Y-105547619D01*
X205785714Y-105500000D01*
X205880952Y-105452380D01*
X206071428Y-105452380D01*
X206166666Y-105500000D01*
X206214285Y-105547619D01*
X206261904Y-105642857D01*
X206261904Y-105690476D01*
X206214285Y-105785714D01*
X206166666Y-105833333D01*
X206071428Y-105880952D01*
X205880952Y-105880952D01*
X205785714Y-105928571D01*
X205738095Y-105976190D01*
X205690476Y-106071428D01*
X205690476Y-106261904D01*
X205738095Y-106357142D01*
X205785714Y-106404761D01*
X205880952Y-106452380D01*
X206071428Y-106452380D01*
X206166666Y-106404761D01*
X206214285Y-106357142D01*
X206261904Y-106261904D01*
X206261904Y-106071428D01*
X206214285Y-105976190D01*
X206166666Y-105928571D01*
X206071428Y-105880952D01*
X206642857Y-105547619D02*
X206690476Y-105500000D01*
X206785714Y-105452380D01*
X207023809Y-105452380D01*
X207119047Y-105500000D01*
X207166666Y-105547619D01*
X207214285Y-105642857D01*
X207214285Y-105738095D01*
X207166666Y-105880952D01*
X206595238Y-106452380D01*
X207214285Y-106452380D01*
%TO.C,J7*%
X224666666Y-121452380D02*
X224666666Y-122166666D01*
X224619047Y-122309523D01*
X224523809Y-122404761D01*
X224380952Y-122452380D01*
X224285714Y-122452380D01*
X225047619Y-121452380D02*
X225714285Y-121452380D01*
X225285714Y-122452380D01*
%TO.C,R4*%
X191833333Y-113802380D02*
X191500000Y-113326190D01*
X191261904Y-113802380D02*
X191261904Y-112802380D01*
X191642857Y-112802380D01*
X191738095Y-112850000D01*
X191785714Y-112897619D01*
X191833333Y-112992857D01*
X191833333Y-113135714D01*
X191785714Y-113230952D01*
X191738095Y-113278571D01*
X191642857Y-113326190D01*
X191261904Y-113326190D01*
X192690476Y-113135714D02*
X192690476Y-113802380D01*
X192452380Y-112754761D02*
X192214285Y-113469047D01*
X192833333Y-113469047D01*
%TO.C,R3*%
X187833333Y-113452380D02*
X187500000Y-112976190D01*
X187261904Y-113452380D02*
X187261904Y-112452380D01*
X187642857Y-112452380D01*
X187738095Y-112500000D01*
X187785714Y-112547619D01*
X187833333Y-112642857D01*
X187833333Y-112785714D01*
X187785714Y-112880952D01*
X187738095Y-112928571D01*
X187642857Y-112976190D01*
X187261904Y-112976190D01*
X188166666Y-112452380D02*
X188785714Y-112452380D01*
X188452380Y-112833333D01*
X188595238Y-112833333D01*
X188690476Y-112880952D01*
X188738095Y-112928571D01*
X188785714Y-113023809D01*
X188785714Y-113261904D01*
X188738095Y-113357142D01*
X188690476Y-113404761D01*
X188595238Y-113452380D01*
X188309523Y-113452380D01*
X188214285Y-113404761D01*
X188166666Y-113357142D01*
%TO.C,R2*%
X214833333Y-121452380D02*
X214500000Y-120976190D01*
X214261904Y-121452380D02*
X214261904Y-120452380D01*
X214642857Y-120452380D01*
X214738095Y-120500000D01*
X214785714Y-120547619D01*
X214833333Y-120642857D01*
X214833333Y-120785714D01*
X214785714Y-120880952D01*
X214738095Y-120928571D01*
X214642857Y-120976190D01*
X214261904Y-120976190D01*
X215214285Y-120547619D02*
X215261904Y-120500000D01*
X215357142Y-120452380D01*
X215595238Y-120452380D01*
X215690476Y-120500000D01*
X215738095Y-120547619D01*
X215785714Y-120642857D01*
X215785714Y-120738095D01*
X215738095Y-120880952D01*
X215166666Y-121452380D01*
X215785714Y-121452380D01*
%TO.C,R1*%
X222833333Y-112102380D02*
X222500000Y-111626190D01*
X222261904Y-112102380D02*
X222261904Y-111102380D01*
X222642857Y-111102380D01*
X222738095Y-111150000D01*
X222785714Y-111197619D01*
X222833333Y-111292857D01*
X222833333Y-111435714D01*
X222785714Y-111530952D01*
X222738095Y-111578571D01*
X222642857Y-111626190D01*
X222261904Y-111626190D01*
X223785714Y-112102380D02*
X223214285Y-112102380D01*
X223500000Y-112102380D02*
X223500000Y-111102380D01*
X223404761Y-111245238D01*
X223309523Y-111340476D01*
X223214285Y-111388095D01*
%TO.C,C4*%
X211833333Y-104037142D02*
X211785714Y-104084761D01*
X211642857Y-104132380D01*
X211547619Y-104132380D01*
X211404761Y-104084761D01*
X211309523Y-103989523D01*
X211261904Y-103894285D01*
X211214285Y-103703809D01*
X211214285Y-103560952D01*
X211261904Y-103370476D01*
X211309523Y-103275238D01*
X211404761Y-103180000D01*
X211547619Y-103132380D01*
X211642857Y-103132380D01*
X211785714Y-103180000D01*
X211833333Y-103227619D01*
X212690476Y-103465714D02*
X212690476Y-104132380D01*
X212452380Y-103084761D02*
X212214285Y-103799047D01*
X212833333Y-103799047D01*
%TO.C,C3*%
X194513333Y-109357142D02*
X194465714Y-109404761D01*
X194322857Y-109452380D01*
X194227619Y-109452380D01*
X194084761Y-109404761D01*
X193989523Y-109309523D01*
X193941904Y-109214285D01*
X193894285Y-109023809D01*
X193894285Y-108880952D01*
X193941904Y-108690476D01*
X193989523Y-108595238D01*
X194084761Y-108500000D01*
X194227619Y-108452380D01*
X194322857Y-108452380D01*
X194465714Y-108500000D01*
X194513333Y-108547619D01*
X194846666Y-108452380D02*
X195465714Y-108452380D01*
X195132380Y-108833333D01*
X195275238Y-108833333D01*
X195370476Y-108880952D01*
X195418095Y-108928571D01*
X195465714Y-109023809D01*
X195465714Y-109261904D01*
X195418095Y-109357142D01*
X195370476Y-109404761D01*
X195275238Y-109452380D01*
X194989523Y-109452380D01*
X194894285Y-109404761D01*
X194846666Y-109357142D01*
%TO.C,C1*%
X217833333Y-113677142D02*
X217785714Y-113724761D01*
X217642857Y-113772380D01*
X217547619Y-113772380D01*
X217404761Y-113724761D01*
X217309523Y-113629523D01*
X217261904Y-113534285D01*
X217214285Y-113343809D01*
X217214285Y-113200952D01*
X217261904Y-113010476D01*
X217309523Y-112915238D01*
X217404761Y-112820000D01*
X217547619Y-112772380D01*
X217642857Y-112772380D01*
X217785714Y-112820000D01*
X217833333Y-112867619D01*
X218785714Y-113772380D02*
X218214285Y-113772380D01*
X218500000Y-113772380D02*
X218500000Y-112772380D01*
X218404761Y-112915238D01*
X218309523Y-113010476D01*
X218214285Y-113058095D01*
%TO.C,R7*%
X214833333Y-118452380D02*
X214500000Y-117976190D01*
X214261904Y-118452380D02*
X214261904Y-117452380D01*
X214642857Y-117452380D01*
X214738095Y-117500000D01*
X214785714Y-117547619D01*
X214833333Y-117642857D01*
X214833333Y-117785714D01*
X214785714Y-117880952D01*
X214738095Y-117928571D01*
X214642857Y-117976190D01*
X214261904Y-117976190D01*
X215166666Y-117452380D02*
X215833333Y-117452380D01*
X215404761Y-118452380D01*
%TO.C,R6*%
X185833333Y-109802380D02*
X185500000Y-109326190D01*
X185261904Y-109802380D02*
X185261904Y-108802380D01*
X185642857Y-108802380D01*
X185738095Y-108850000D01*
X185785714Y-108897619D01*
X185833333Y-108992857D01*
X185833333Y-109135714D01*
X185785714Y-109230952D01*
X185738095Y-109278571D01*
X185642857Y-109326190D01*
X185261904Y-109326190D01*
X186690476Y-108802380D02*
X186500000Y-108802380D01*
X186404761Y-108850000D01*
X186357142Y-108897619D01*
X186261904Y-109040476D01*
X186214285Y-109230952D01*
X186214285Y-109611904D01*
X186261904Y-109707142D01*
X186309523Y-109754761D01*
X186404761Y-109802380D01*
X186595238Y-109802380D01*
X186690476Y-109754761D01*
X186738095Y-109707142D01*
X186785714Y-109611904D01*
X186785714Y-109373809D01*
X186738095Y-109278571D01*
X186690476Y-109230952D01*
X186595238Y-109183333D01*
X186404761Y-109183333D01*
X186309523Y-109230952D01*
X186261904Y-109278571D01*
X186214285Y-109373809D01*
%TO.C,R5*%
X185833333Y-117102380D02*
X185500000Y-116626190D01*
X185261904Y-117102380D02*
X185261904Y-116102380D01*
X185642857Y-116102380D01*
X185738095Y-116150000D01*
X185785714Y-116197619D01*
X185833333Y-116292857D01*
X185833333Y-116435714D01*
X185785714Y-116530952D01*
X185738095Y-116578571D01*
X185642857Y-116626190D01*
X185261904Y-116626190D01*
X186738095Y-116102380D02*
X186261904Y-116102380D01*
X186214285Y-116578571D01*
X186261904Y-116530952D01*
X186357142Y-116483333D01*
X186595238Y-116483333D01*
X186690476Y-116530952D01*
X186738095Y-116578571D01*
X186785714Y-116673809D01*
X186785714Y-116911904D01*
X186738095Y-117007142D01*
X186690476Y-117054761D01*
X186595238Y-117102380D01*
X186357142Y-117102380D01*
X186261904Y-117054761D01*
X186214285Y-117007142D01*
%TO.C,J6*%
X182666666Y-118452380D02*
X182666666Y-119166666D01*
X182619047Y-119309523D01*
X182523809Y-119404761D01*
X182380952Y-119452380D01*
X182285714Y-119452380D01*
X183571428Y-118452380D02*
X183380952Y-118452380D01*
X183285714Y-118500000D01*
X183238095Y-118547619D01*
X183142857Y-118690476D01*
X183095238Y-118880952D01*
X183095238Y-119261904D01*
X183142857Y-119357142D01*
X183190476Y-119404761D01*
X183285714Y-119452380D01*
X183476190Y-119452380D01*
X183571428Y-119404761D01*
X183619047Y-119357142D01*
X183666666Y-119261904D01*
X183666666Y-119023809D01*
X183619047Y-118928571D01*
X183571428Y-118880952D01*
X183476190Y-118833333D01*
X183285714Y-118833333D01*
X183190476Y-118880952D01*
X183142857Y-118928571D01*
X183095238Y-119023809D01*
X178452380Y-119642857D02*
X178452380Y-120119047D01*
X177452380Y-120119047D01*
X177928571Y-119309523D02*
X177928571Y-118976190D01*
X178452380Y-118833333D02*
X178452380Y-119309523D01*
X177452380Y-119309523D01*
X177452380Y-118833333D01*
X178452380Y-118404761D02*
X177452380Y-118404761D01*
X177452380Y-118166666D01*
X177500000Y-118023809D01*
X177595238Y-117928571D01*
X177690476Y-117880952D01*
X177880952Y-117833333D01*
X178023809Y-117833333D01*
X178214285Y-117880952D01*
X178309523Y-117928571D01*
X178404761Y-118023809D01*
X178452380Y-118166666D01*
X178452380Y-118404761D01*
%TO.C,C6*%
X217833333Y-112037142D02*
X217785714Y-112084761D01*
X217642857Y-112132380D01*
X217547619Y-112132380D01*
X217404761Y-112084761D01*
X217309523Y-111989523D01*
X217261904Y-111894285D01*
X217214285Y-111703809D01*
X217214285Y-111560952D01*
X217261904Y-111370476D01*
X217309523Y-111275238D01*
X217404761Y-111180000D01*
X217547619Y-111132380D01*
X217642857Y-111132380D01*
X217785714Y-111180000D01*
X217833333Y-111227619D01*
X218690476Y-111132380D02*
X218500000Y-111132380D01*
X218404761Y-111180000D01*
X218357142Y-111227619D01*
X218261904Y-111370476D01*
X218214285Y-111560952D01*
X218214285Y-111941904D01*
X218261904Y-112037142D01*
X218309523Y-112084761D01*
X218404761Y-112132380D01*
X218595238Y-112132380D01*
X218690476Y-112084761D01*
X218738095Y-112037142D01*
X218785714Y-111941904D01*
X218785714Y-111703809D01*
X218738095Y-111608571D01*
X218690476Y-111560952D01*
X218595238Y-111513333D01*
X218404761Y-111513333D01*
X218309523Y-111560952D01*
X218261904Y-111608571D01*
X218214285Y-111703809D01*
%TO.C,C5*%
X195583333Y-122357142D02*
X195535714Y-122404761D01*
X195392857Y-122452380D01*
X195297619Y-122452380D01*
X195154761Y-122404761D01*
X195059523Y-122309523D01*
X195011904Y-122214285D01*
X194964285Y-122023809D01*
X194964285Y-121880952D01*
X195011904Y-121690476D01*
X195059523Y-121595238D01*
X195154761Y-121500000D01*
X195297619Y-121452380D01*
X195392857Y-121452380D01*
X195535714Y-121500000D01*
X195583333Y-121547619D01*
X196488095Y-121452380D02*
X196011904Y-121452380D01*
X195964285Y-121928571D01*
X196011904Y-121880952D01*
X196107142Y-121833333D01*
X196345238Y-121833333D01*
X196440476Y-121880952D01*
X196488095Y-121928571D01*
X196535714Y-122023809D01*
X196535714Y-122261904D01*
X196488095Y-122357142D01*
X196440476Y-122404761D01*
X196345238Y-122452380D01*
X196107142Y-122452380D01*
X196011904Y-122404761D01*
X195964285Y-122357142D01*
%TO.C,J5*%
X226666666Y-114452380D02*
X226666666Y-115166666D01*
X226619047Y-115309523D01*
X226523809Y-115404761D01*
X226380952Y-115452380D01*
X226285714Y-115452380D01*
X227619047Y-114452380D02*
X227142857Y-114452380D01*
X227095238Y-114928571D01*
X227142857Y-114880952D01*
X227238095Y-114833333D01*
X227476190Y-114833333D01*
X227571428Y-114880952D01*
X227619047Y-114928571D01*
X227666666Y-115023809D01*
X227666666Y-115261904D01*
X227619047Y-115357142D01*
X227571428Y-115404761D01*
X227476190Y-115452380D01*
X227238095Y-115452380D01*
X227142857Y-115404761D01*
X227095238Y-115357142D01*
X231500000Y-115761904D02*
X231452380Y-115857142D01*
X231452380Y-116000000D01*
X231500000Y-116142857D01*
X231595238Y-116238095D01*
X231690476Y-116285714D01*
X231880952Y-116333333D01*
X232023809Y-116333333D01*
X232214285Y-116285714D01*
X232309523Y-116238095D01*
X232404761Y-116142857D01*
X232452380Y-116000000D01*
X232452380Y-115904761D01*
X232404761Y-115761904D01*
X232357142Y-115714285D01*
X232023809Y-115714285D01*
X232023809Y-115904761D01*
X232452380Y-115285714D02*
X231452380Y-115285714D01*
X232452380Y-114714285D01*
X231452380Y-114714285D01*
X232452380Y-114238095D02*
X231452380Y-114238095D01*
X231452380Y-114000000D01*
X231500000Y-113857142D01*
X231595238Y-113761904D01*
X231690476Y-113714285D01*
X231880952Y-113666666D01*
X232023809Y-113666666D01*
X232214285Y-113714285D01*
X232309523Y-113761904D01*
X232404761Y-113857142D01*
X232452380Y-114000000D01*
X232452380Y-114238095D01*
%TO.C,J3*%
X226666666Y-118452380D02*
X226666666Y-119166666D01*
X226619047Y-119309523D01*
X226523809Y-119404761D01*
X226380952Y-119452380D01*
X226285714Y-119452380D01*
X227047619Y-118452380D02*
X227666666Y-118452380D01*
X227333333Y-118833333D01*
X227476190Y-118833333D01*
X227571428Y-118880952D01*
X227619047Y-118928571D01*
X227666666Y-119023809D01*
X227666666Y-119261904D01*
X227619047Y-119357142D01*
X227571428Y-119404761D01*
X227476190Y-119452380D01*
X227190476Y-119452380D01*
X227095238Y-119404761D01*
X227047619Y-119357142D01*
X231452380Y-120023809D02*
X232452380Y-119690476D01*
X231452380Y-119357142D01*
X232452380Y-119023809D02*
X231785714Y-119023809D01*
X231452380Y-119023809D02*
X231500000Y-119071428D01*
X231547619Y-119023809D01*
X231500000Y-118976190D01*
X231452380Y-119023809D01*
X231547619Y-119023809D01*
X231785714Y-118547619D02*
X232452380Y-118547619D01*
X231880952Y-118547619D02*
X231833333Y-118500000D01*
X231785714Y-118404761D01*
X231785714Y-118261904D01*
X231833333Y-118166666D01*
X231928571Y-118119047D01*
X232452380Y-118119047D01*
%TO.C,J1*%
X182666666Y-110452380D02*
X182666666Y-111166666D01*
X182619047Y-111309523D01*
X182523809Y-111404761D01*
X182380952Y-111452380D01*
X182285714Y-111452380D01*
X183666666Y-111452380D02*
X183095238Y-111452380D01*
X183380952Y-111452380D02*
X183380952Y-110452380D01*
X183285714Y-110595238D01*
X183190476Y-110690476D01*
X183095238Y-110738095D01*
X177452380Y-112333333D02*
X178452380Y-112000000D01*
X177452380Y-111666666D01*
X178357142Y-110761904D02*
X178404761Y-110809523D01*
X178452380Y-110952380D01*
X178452380Y-111047619D01*
X178404761Y-111190476D01*
X178309523Y-111285714D01*
X178214285Y-111333333D01*
X178023809Y-111380952D01*
X177880952Y-111380952D01*
X177690476Y-111333333D01*
X177595238Y-111285714D01*
X177500000Y-111190476D01*
X177452380Y-111047619D01*
X177452380Y-110952380D01*
X177500000Y-110809523D01*
X177547619Y-110761904D01*
X178357142Y-109761904D02*
X178404761Y-109809523D01*
X178452380Y-109952380D01*
X178452380Y-110047619D01*
X178404761Y-110190476D01*
X178309523Y-110285714D01*
X178214285Y-110333333D01*
X178023809Y-110380952D01*
X177880952Y-110380952D01*
X177690476Y-110333333D01*
X177595238Y-110285714D01*
X177500000Y-110190476D01*
X177452380Y-110047619D01*
X177452380Y-109952380D01*
X177500000Y-109809523D01*
X177547619Y-109761904D01*
%TO.C,J2*%
X182666666Y-114452380D02*
X182666666Y-115166666D01*
X182619047Y-115309523D01*
X182523809Y-115404761D01*
X182380952Y-115452380D01*
X182285714Y-115452380D01*
X183095238Y-114547619D02*
X183142857Y-114500000D01*
X183238095Y-114452380D01*
X183476190Y-114452380D01*
X183571428Y-114500000D01*
X183619047Y-114547619D01*
X183666666Y-114642857D01*
X183666666Y-114738095D01*
X183619047Y-114880952D01*
X183047619Y-115452380D01*
X183666666Y-115452380D01*
X177500000Y-115761904D02*
X177452380Y-115857142D01*
X177452380Y-116000000D01*
X177500000Y-116142857D01*
X177595238Y-116238095D01*
X177690476Y-116285714D01*
X177880952Y-116333333D01*
X178023809Y-116333333D01*
X178214285Y-116285714D01*
X178309523Y-116238095D01*
X178404761Y-116142857D01*
X178452380Y-116000000D01*
X178452380Y-115904761D01*
X178404761Y-115761904D01*
X178357142Y-115714285D01*
X178023809Y-115714285D01*
X178023809Y-115904761D01*
X178452380Y-115285714D02*
X177452380Y-115285714D01*
X178452380Y-114714285D01*
X177452380Y-114714285D01*
X178452380Y-114238095D02*
X177452380Y-114238095D01*
X177452380Y-114000000D01*
X177500000Y-113857142D01*
X177595238Y-113761904D01*
X177690476Y-113714285D01*
X177880952Y-113666666D01*
X178023809Y-113666666D01*
X178214285Y-113714285D01*
X178309523Y-113761904D01*
X178404761Y-113857142D01*
X178452380Y-114000000D01*
X178452380Y-114238095D01*
%TO.C,J4*%
X226666666Y-110452380D02*
X226666666Y-111166666D01*
X226619047Y-111309523D01*
X226523809Y-111404761D01*
X226380952Y-111452380D01*
X226285714Y-111452380D01*
X227571428Y-110785714D02*
X227571428Y-111452380D01*
X227333333Y-110404761D02*
X227095238Y-111119047D01*
X227714285Y-111119047D01*
X231452380Y-112523809D02*
X232452380Y-112190476D01*
X231452380Y-111857142D01*
X232452380Y-111380952D02*
X232404761Y-111476190D01*
X232357142Y-111523809D01*
X232261904Y-111571428D01*
X231976190Y-111571428D01*
X231880952Y-111523809D01*
X231833333Y-111476190D01*
X231785714Y-111380952D01*
X231785714Y-111238095D01*
X231833333Y-111142857D01*
X231880952Y-111095238D01*
X231976190Y-111047619D01*
X232261904Y-111047619D01*
X232357142Y-111095238D01*
X232404761Y-111142857D01*
X232452380Y-111238095D01*
X232452380Y-111380952D01*
X231785714Y-110190476D02*
X232452380Y-110190476D01*
X231785714Y-110619047D02*
X232309523Y-110619047D01*
X232404761Y-110571428D01*
X232452380Y-110476190D01*
X232452380Y-110333333D01*
X232404761Y-110238095D01*
X232357142Y-110190476D01*
X231785714Y-109857142D02*
X231785714Y-109476190D01*
X231452380Y-109714285D02*
X232309523Y-109714285D01*
X232404761Y-109666666D01*
X232452380Y-109571428D01*
X232452380Y-109476190D01*
%TO.C,C2*%
X181833333Y-122357142D02*
X181785714Y-122404761D01*
X181642857Y-122452380D01*
X181547619Y-122452380D01*
X181404761Y-122404761D01*
X181309523Y-122309523D01*
X181261904Y-122214285D01*
X181214285Y-122023809D01*
X181214285Y-121880952D01*
X181261904Y-121690476D01*
X181309523Y-121595238D01*
X181404761Y-121500000D01*
X181547619Y-121452380D01*
X181642857Y-121452380D01*
X181785714Y-121500000D01*
X181833333Y-121547619D01*
X182214285Y-121547619D02*
X182261904Y-121500000D01*
X182357142Y-121452380D01*
X182595238Y-121452380D01*
X182690476Y-121500000D01*
X182738095Y-121547619D01*
X182785714Y-121642857D01*
X182785714Y-121738095D01*
X182738095Y-121880952D01*
X182166666Y-122452380D01*
X182785714Y-122452380D01*
%TD*%
M02*
