%TF.GenerationSoftware,KiCad,Pcbnew,5.1.9-73d0e3b20d~88~ubuntu20.04.1*%
%TF.CreationDate,2021-05-23T20:46:25+02:00*%
%TF.ProjectId,ValveLord,56616c76-654c-46f7-9264-2e6b69636164,rev?*%
%TF.SameCoordinates,Original*%
%TF.FileFunction,Paste,Top*%
%TF.FilePolarity,Positive*%
%FSLAX46Y46*%
G04 Gerber Fmt 4.6, Leading zero omitted, Abs format (unit mm)*
G04 Created by KiCad (PCBNEW 5.1.9-73d0e3b20d~88~ubuntu20.04.1) date 2021-05-23 20:46:25*
%MOMM*%
%LPD*%
G01*
G04 APERTURE LIST*
G04 APERTURE END LIST*
%TO.C,R4*%
G36*
G01*
X192400000Y-115450001D02*
X192400000Y-114549999D01*
G75*
G02*
X192649999Y-114300000I249999J0D01*
G01*
X193350001Y-114300000D01*
G75*
G02*
X193600000Y-114549999I0J-249999D01*
G01*
X193600000Y-115450001D01*
G75*
G02*
X193350001Y-115700000I-249999J0D01*
G01*
X192649999Y-115700000D01*
G75*
G02*
X192400000Y-115450001I0J249999D01*
G01*
G37*
G36*
G01*
X190400000Y-115450001D02*
X190400000Y-114549999D01*
G75*
G02*
X190649999Y-114300000I249999J0D01*
G01*
X191350001Y-114300000D01*
G75*
G02*
X191600000Y-114549999I0J-249999D01*
G01*
X191600000Y-115450001D01*
G75*
G02*
X191350001Y-115700000I-249999J0D01*
G01*
X190649999Y-115700000D01*
G75*
G02*
X190400000Y-115450001I0J249999D01*
G01*
G37*
%TD*%
%TO.C,R3*%
G36*
G01*
X189549999Y-111400000D02*
X190450001Y-111400000D01*
G75*
G02*
X190700000Y-111649999I0J-249999D01*
G01*
X190700000Y-112350001D01*
G75*
G02*
X190450001Y-112600000I-249999J0D01*
G01*
X189549999Y-112600000D01*
G75*
G02*
X189300000Y-112350001I0J249999D01*
G01*
X189300000Y-111649999D01*
G75*
G02*
X189549999Y-111400000I249999J0D01*
G01*
G37*
G36*
G01*
X189549999Y-109400000D02*
X190450001Y-109400000D01*
G75*
G02*
X190700000Y-109649999I0J-249999D01*
G01*
X190700000Y-110350001D01*
G75*
G02*
X190450001Y-110600000I-249999J0D01*
G01*
X189549999Y-110600000D01*
G75*
G02*
X189300000Y-110350001I0J249999D01*
G01*
X189300000Y-109649999D01*
G75*
G02*
X189549999Y-109400000I249999J0D01*
G01*
G37*
%TD*%
%TO.C,R2*%
G36*
G01*
X217600000Y-120549999D02*
X217600000Y-121450001D01*
G75*
G02*
X217350001Y-121700000I-249999J0D01*
G01*
X216649999Y-121700000D01*
G75*
G02*
X216400000Y-121450001I0J249999D01*
G01*
X216400000Y-120549999D01*
G75*
G02*
X216649999Y-120300000I249999J0D01*
G01*
X217350001Y-120300000D01*
G75*
G02*
X217600000Y-120549999I0J-249999D01*
G01*
G37*
G36*
G01*
X219600000Y-120549999D02*
X219600000Y-121450001D01*
G75*
G02*
X219350001Y-121700000I-249999J0D01*
G01*
X218649999Y-121700000D01*
G75*
G02*
X218400000Y-121450001I0J249999D01*
G01*
X218400000Y-120549999D01*
G75*
G02*
X218649999Y-120300000I249999J0D01*
G01*
X219350001Y-120300000D01*
G75*
G02*
X219600000Y-120549999I0J-249999D01*
G01*
G37*
%TD*%
%TO.C,R1*%
G36*
G01*
X222600000Y-109549999D02*
X222600000Y-110450001D01*
G75*
G02*
X222350001Y-110700000I-249999J0D01*
G01*
X221649999Y-110700000D01*
G75*
G02*
X221400000Y-110450001I0J249999D01*
G01*
X221400000Y-109549999D01*
G75*
G02*
X221649999Y-109300000I249999J0D01*
G01*
X222350001Y-109300000D01*
G75*
G02*
X222600000Y-109549999I0J-249999D01*
G01*
G37*
G36*
G01*
X224600000Y-109549999D02*
X224600000Y-110450001D01*
G75*
G02*
X224350001Y-110700000I-249999J0D01*
G01*
X223649999Y-110700000D01*
G75*
G02*
X223400000Y-110450001I0J249999D01*
G01*
X223400000Y-109549999D01*
G75*
G02*
X223649999Y-109300000I249999J0D01*
G01*
X224350001Y-109300000D01*
G75*
G02*
X224600000Y-109549999I0J-249999D01*
G01*
G37*
%TD*%
%TO.C,C4*%
G36*
G01*
X210550000Y-101525000D02*
X210550000Y-102475000D01*
G75*
G02*
X210300000Y-102725000I-250000J0D01*
G01*
X209625000Y-102725000D01*
G75*
G02*
X209375000Y-102475000I0J250000D01*
G01*
X209375000Y-101525000D01*
G75*
G02*
X209625000Y-101275000I250000J0D01*
G01*
X210300000Y-101275000D01*
G75*
G02*
X210550000Y-101525000I0J-250000D01*
G01*
G37*
G36*
G01*
X212625000Y-101525000D02*
X212625000Y-102475000D01*
G75*
G02*
X212375000Y-102725000I-250000J0D01*
G01*
X211700000Y-102725000D01*
G75*
G02*
X211450000Y-102475000I0J250000D01*
G01*
X211450000Y-101525000D01*
G75*
G02*
X211700000Y-101275000I250000J0D01*
G01*
X212375000Y-101275000D01*
G75*
G02*
X212625000Y-101525000I0J-250000D01*
G01*
G37*
%TD*%
%TO.C,C3*%
G36*
G01*
X192525000Y-111450000D02*
X193475000Y-111450000D01*
G75*
G02*
X193725000Y-111700000I0J-250000D01*
G01*
X193725000Y-112375000D01*
G75*
G02*
X193475000Y-112625000I-250000J0D01*
G01*
X192525000Y-112625000D01*
G75*
G02*
X192275000Y-112375000I0J250000D01*
G01*
X192275000Y-111700000D01*
G75*
G02*
X192525000Y-111450000I250000J0D01*
G01*
G37*
G36*
G01*
X192525000Y-109375000D02*
X193475000Y-109375000D01*
G75*
G02*
X193725000Y-109625000I0J-250000D01*
G01*
X193725000Y-110300000D01*
G75*
G02*
X193475000Y-110550000I-250000J0D01*
G01*
X192525000Y-110550000D01*
G75*
G02*
X192275000Y-110300000I0J250000D01*
G01*
X192275000Y-109625000D01*
G75*
G02*
X192525000Y-109375000I250000J0D01*
G01*
G37*
%TD*%
%TO.C,C1*%
G36*
G01*
X218450000Y-115475000D02*
X218450000Y-114525000D01*
G75*
G02*
X218700000Y-114275000I250000J0D01*
G01*
X219375000Y-114275000D01*
G75*
G02*
X219625000Y-114525000I0J-250000D01*
G01*
X219625000Y-115475000D01*
G75*
G02*
X219375000Y-115725000I-250000J0D01*
G01*
X218700000Y-115725000D01*
G75*
G02*
X218450000Y-115475000I0J250000D01*
G01*
G37*
G36*
G01*
X216375000Y-115475000D02*
X216375000Y-114525000D01*
G75*
G02*
X216625000Y-114275000I250000J0D01*
G01*
X217300000Y-114275000D01*
G75*
G02*
X217550000Y-114525000I0J-250000D01*
G01*
X217550000Y-115475000D01*
G75*
G02*
X217300000Y-115725000I-250000J0D01*
G01*
X216625000Y-115725000D01*
G75*
G02*
X216375000Y-115475000I0J250000D01*
G01*
G37*
%TD*%
%TO.C,R7*%
G36*
G01*
X217600000Y-117549999D02*
X217600000Y-118450001D01*
G75*
G02*
X217350001Y-118700000I-249999J0D01*
G01*
X216649999Y-118700000D01*
G75*
G02*
X216400000Y-118450001I0J249999D01*
G01*
X216400000Y-117549999D01*
G75*
G02*
X216649999Y-117300000I249999J0D01*
G01*
X217350001Y-117300000D01*
G75*
G02*
X217600000Y-117549999I0J-249999D01*
G01*
G37*
G36*
G01*
X219600000Y-117549999D02*
X219600000Y-118450001D01*
G75*
G02*
X219350001Y-118700000I-249999J0D01*
G01*
X218649999Y-118700000D01*
G75*
G02*
X218400000Y-118450001I0J249999D01*
G01*
X218400000Y-117549999D01*
G75*
G02*
X218649999Y-117300000I249999J0D01*
G01*
X219350001Y-117300000D01*
G75*
G02*
X219600000Y-117549999I0J-249999D01*
G01*
G37*
%TD*%
%TO.C,R6*%
G36*
G01*
X186400000Y-111450001D02*
X186400000Y-110549999D01*
G75*
G02*
X186649999Y-110300000I249999J0D01*
G01*
X187350001Y-110300000D01*
G75*
G02*
X187600000Y-110549999I0J-249999D01*
G01*
X187600000Y-111450001D01*
G75*
G02*
X187350001Y-111700000I-249999J0D01*
G01*
X186649999Y-111700000D01*
G75*
G02*
X186400000Y-111450001I0J249999D01*
G01*
G37*
G36*
G01*
X184400000Y-111450001D02*
X184400000Y-110549999D01*
G75*
G02*
X184649999Y-110300000I249999J0D01*
G01*
X185350001Y-110300000D01*
G75*
G02*
X185600000Y-110549999I0J-249999D01*
G01*
X185600000Y-111450001D01*
G75*
G02*
X185350001Y-111700000I-249999J0D01*
G01*
X184649999Y-111700000D01*
G75*
G02*
X184400000Y-111450001I0J249999D01*
G01*
G37*
%TD*%
%TO.C,R5*%
G36*
G01*
X185600000Y-114549999D02*
X185600000Y-115450001D01*
G75*
G02*
X185350001Y-115700000I-249999J0D01*
G01*
X184649999Y-115700000D01*
G75*
G02*
X184400000Y-115450001I0J249999D01*
G01*
X184400000Y-114549999D01*
G75*
G02*
X184649999Y-114300000I249999J0D01*
G01*
X185350001Y-114300000D01*
G75*
G02*
X185600000Y-114549999I0J-249999D01*
G01*
G37*
G36*
G01*
X187600000Y-114549999D02*
X187600000Y-115450001D01*
G75*
G02*
X187350001Y-115700000I-249999J0D01*
G01*
X186649999Y-115700000D01*
G75*
G02*
X186400000Y-115450001I0J249999D01*
G01*
X186400000Y-114549999D01*
G75*
G02*
X186649999Y-114300000I249999J0D01*
G01*
X187350001Y-114300000D01*
G75*
G02*
X187600000Y-114549999I0J-249999D01*
G01*
G37*
%TD*%
%TO.C,C6*%
G36*
G01*
X217550000Y-109525000D02*
X217550000Y-110475000D01*
G75*
G02*
X217300000Y-110725000I-250000J0D01*
G01*
X216625000Y-110725000D01*
G75*
G02*
X216375000Y-110475000I0J250000D01*
G01*
X216375000Y-109525000D01*
G75*
G02*
X216625000Y-109275000I250000J0D01*
G01*
X217300000Y-109275000D01*
G75*
G02*
X217550000Y-109525000I0J-250000D01*
G01*
G37*
G36*
G01*
X219625000Y-109525000D02*
X219625000Y-110475000D01*
G75*
G02*
X219375000Y-110725000I-250000J0D01*
G01*
X218700000Y-110725000D01*
G75*
G02*
X218450000Y-110475000I0J250000D01*
G01*
X218450000Y-109525000D01*
G75*
G02*
X218700000Y-109275000I250000J0D01*
G01*
X219375000Y-109275000D01*
G75*
G02*
X219625000Y-109525000I0J-250000D01*
G01*
G37*
%TD*%
M02*
