%TF.GenerationSoftware,KiCad,Pcbnew,5.1.9-73d0e3b20d~88~ubuntu20.04.1*%
%TF.CreationDate,2021-05-22T18:00:36+02:00*%
%TF.ProjectId,ValveLord,56616c76-654c-46f7-9264-2e6b69636164,rev?*%
%TF.SameCoordinates,Original*%
%TF.FileFunction,Copper,L2,Bot*%
%TF.FilePolarity,Positive*%
%FSLAX46Y46*%
G04 Gerber Fmt 4.6, Leading zero omitted, Abs format (unit mm)*
G04 Created by KiCad (PCBNEW 5.1.9-73d0e3b20d~88~ubuntu20.04.1) date 2021-05-22 18:00:36*
%MOMM*%
%LPD*%
G01*
G04 APERTURE LIST*
%TA.AperFunction,ComponentPad*%
%ADD10C,2.340000*%
%TD*%
%TA.AperFunction,ComponentPad*%
%ADD11C,2.200000*%
%TD*%
%TA.AperFunction,ComponentPad*%
%ADD12O,1.700000X1.700000*%
%TD*%
%TA.AperFunction,ComponentPad*%
%ADD13R,1.700000X1.700000*%
%TD*%
%TA.AperFunction,ComponentPad*%
%ADD14C,1.800000*%
%TD*%
%TA.AperFunction,ComponentPad*%
%ADD15R,1.800000X1.800000*%
%TD*%
%TA.AperFunction,ComponentPad*%
%ADD16C,1.600000*%
%TD*%
%TA.AperFunction,ComponentPad*%
%ADD17R,1.600000X1.600000*%
%TD*%
%TA.AperFunction,ViaPad*%
%ADD18C,0.800000*%
%TD*%
%TA.AperFunction,Conductor*%
%ADD19C,0.250000*%
%TD*%
%TA.AperFunction,Conductor*%
%ADD20C,0.254000*%
%TD*%
%TA.AperFunction,Conductor*%
%ADD21C,0.100000*%
%TD*%
G04 APERTURE END LIST*
D10*
%TO.P,RV2,1*%
%TO.N,GND*%
X227000000Y-102000000D03*
%TO.P,RV2,2*%
%TO.N,/Vout*%
X222000000Y-102000000D03*
%TO.P,RV2,3*%
%TO.N,Net-(C4-Pad1)*%
X217000000Y-102000000D03*
%TD*%
%TO.P,RV1,1*%
%TO.N,Net-(RV1-Pad1)*%
X193000000Y-102000000D03*
%TO.P,RV1,2*%
%TO.N,Net-(C6-Pad2)*%
X188000000Y-102000000D03*
%TO.P,RV1,3*%
%TO.N,GND*%
X183000000Y-102000000D03*
%TD*%
D11*
%TO.P,U1,9*%
%TO.N,Net-(U1-Pad9)*%
X199710000Y-120280000D03*
%TO.P,U1,8*%
%TO.N,GND*%
X196440000Y-115780000D03*
%TO.P,U1,7*%
%TO.N,Net-(C3-Pad1)*%
X196440000Y-110220000D03*
%TO.P,U1,6*%
%TO.N,Net-(C4-Pad2)*%
X199710000Y-105720000D03*
%TO.P,U1,5*%
%TO.N,VCC*%
X205000000Y-104000000D03*
%TO.P,U1,4*%
%TO.N,GND*%
X210290000Y-105720000D03*
%TO.P,U1,3*%
%TO.N,Net-(C6-Pad2)*%
X213560000Y-110220000D03*
%TO.P,U1,2*%
%TO.N,Net-(C1-Pad1)*%
X213560000Y-115780000D03*
%TO.P,U1,1*%
%TO.N,Net-(C3-Pad2)*%
X210290000Y-120280000D03*
%TD*%
D12*
%TO.P,J7,2*%
%TO.N,Net-(J7-Pad2)*%
X223000000Y-117460000D03*
D13*
%TO.P,J7,1*%
%TO.N,VDD*%
X223000000Y-120000000D03*
%TD*%
%TO.P,J6,1*%
%TO.N,Net-(D1-Pad1)*%
X181000000Y-119000000D03*
%TD*%
D14*
%TO.P,D1,2*%
%TO.N,Net-(D1-Pad2)*%
X206540000Y-120000000D03*
D15*
%TO.P,D1,1*%
%TO.N,Net-(D1-Pad1)*%
X204000000Y-120000000D03*
%TD*%
D16*
%TO.P,C5,2*%
%TO.N,GND*%
X192000000Y-121500000D03*
D17*
%TO.P,C5,1*%
%TO.N,VDD*%
X192000000Y-119000000D03*
%TD*%
D13*
%TO.P,J5,1*%
%TO.N,GND*%
X229000000Y-115000000D03*
%TD*%
%TO.P,J3,1*%
%TO.N,/Vin*%
X229000000Y-119000000D03*
%TD*%
%TO.P,J1,1*%
%TO.N,VCC*%
X181000000Y-111000000D03*
%TD*%
%TO.P,J2,1*%
%TO.N,GND*%
X181000000Y-115000000D03*
%TD*%
%TO.P,J4,1*%
%TO.N,/Vout*%
X229000000Y-111000000D03*
%TD*%
D16*
%TO.P,C2,2*%
%TO.N,GND*%
X186000000Y-121500000D03*
D17*
%TO.P,C2,1*%
%TO.N,VCC*%
X186000000Y-119000000D03*
%TD*%
D18*
%TO.N,Net-(C4-Pad2)*%
X195000000Y-114000000D03*
X197000000Y-112000000D03*
%TO.N,Net-(D1-Pad2)*%
X187000000Y-109000000D03*
%TD*%
D19*
%TO.N,Net-(C4-Pad2)*%
X195000000Y-114000000D02*
X197000000Y-112000000D01*
%TO.N,Net-(C6-Pad2)*%
X210840000Y-107500000D02*
X213560000Y-110220000D01*
X193500000Y-107500000D02*
X210840000Y-107500000D01*
X188000000Y-102000000D02*
X193500000Y-107500000D01*
%TO.N,Net-(D1-Pad2)*%
X206540000Y-121460000D02*
X206540000Y-120000000D01*
X205350010Y-122649990D02*
X206540000Y-121460000D01*
X180649990Y-122649990D02*
X205350010Y-122649990D01*
X179000000Y-121000000D02*
X180649990Y-122649990D01*
X179000000Y-110000000D02*
X179000000Y-121000000D01*
X180000000Y-109000000D02*
X179000000Y-110000000D01*
X184000000Y-109000000D02*
X180000000Y-109000000D01*
X187000000Y-109000000D02*
X184000000Y-109000000D01*
%TD*%
D20*
%TO.N,GND*%
X211349550Y-100129383D02*
X211387290Y-100253793D01*
X211448575Y-100368450D01*
X211531052Y-100468948D01*
X211631550Y-100551425D01*
X211746207Y-100612710D01*
X211870617Y-100650450D01*
X211967581Y-100660000D01*
X212000000Y-100663193D01*
X212032419Y-100660000D01*
X215787344Y-100660000D01*
X215597965Y-100849379D01*
X215400429Y-101145012D01*
X215264365Y-101473501D01*
X215195000Y-101822223D01*
X215195000Y-102177777D01*
X215264365Y-102526499D01*
X215400429Y-102854988D01*
X215597965Y-103150621D01*
X215849379Y-103402035D01*
X216145012Y-103599571D01*
X216473501Y-103735635D01*
X216822223Y-103805000D01*
X217177777Y-103805000D01*
X217526499Y-103735635D01*
X217854988Y-103599571D01*
X218150621Y-103402035D01*
X218402035Y-103150621D01*
X218599571Y-102854988D01*
X218735635Y-102526499D01*
X218805000Y-102177777D01*
X218805000Y-101822223D01*
X218735635Y-101473501D01*
X218599571Y-101145012D01*
X218402035Y-100849379D01*
X218212656Y-100660000D01*
X220787344Y-100660000D01*
X220597965Y-100849379D01*
X220400429Y-101145012D01*
X220264365Y-101473501D01*
X220195000Y-101822223D01*
X220195000Y-102177777D01*
X220264365Y-102526499D01*
X220400429Y-102854988D01*
X220597965Y-103150621D01*
X220849379Y-103402035D01*
X221145012Y-103599571D01*
X221473501Y-103735635D01*
X221822223Y-103805000D01*
X222177777Y-103805000D01*
X222526499Y-103735635D01*
X222854988Y-103599571D01*
X223150621Y-103402035D01*
X223296054Y-103256602D01*
X225923003Y-103256602D01*
X226039275Y-103538389D01*
X226357860Y-103696257D01*
X226701122Y-103788938D01*
X227055869Y-103812873D01*
X227408470Y-103767139D01*
X227745373Y-103653495D01*
X227960725Y-103538389D01*
X228076997Y-103256602D01*
X227000000Y-102179605D01*
X225923003Y-103256602D01*
X223296054Y-103256602D01*
X223402035Y-103150621D01*
X223599571Y-102854988D01*
X223735635Y-102526499D01*
X223805000Y-102177777D01*
X223805000Y-102055869D01*
X225187127Y-102055869D01*
X225232861Y-102408470D01*
X225346505Y-102745373D01*
X225461611Y-102960725D01*
X225743398Y-103076997D01*
X226820395Y-102000000D01*
X227179605Y-102000000D01*
X228256602Y-103076997D01*
X228538389Y-102960725D01*
X228696257Y-102642140D01*
X228788938Y-102298878D01*
X228812873Y-101944131D01*
X228767139Y-101591530D01*
X228653495Y-101254627D01*
X228538389Y-101039275D01*
X228256602Y-100923003D01*
X227179605Y-102000000D01*
X226820395Y-102000000D01*
X225743398Y-100923003D01*
X225461611Y-101039275D01*
X225303743Y-101357860D01*
X225211062Y-101701122D01*
X225187127Y-102055869D01*
X223805000Y-102055869D01*
X223805000Y-101822223D01*
X223735635Y-101473501D01*
X223599571Y-101145012D01*
X223402035Y-100849379D01*
X223212656Y-100660000D01*
X225957415Y-100660000D01*
X225923003Y-100743398D01*
X227000000Y-101820395D01*
X228076997Y-100743398D01*
X228042585Y-100660000D01*
X231967721Y-100660000D01*
X232065424Y-100669580D01*
X232128356Y-100688580D01*
X232186405Y-100719445D01*
X232237343Y-100760989D01*
X232279248Y-100811644D01*
X232310515Y-100869471D01*
X232329956Y-100932272D01*
X232340001Y-101027845D01*
X232340000Y-121967721D01*
X232330420Y-122065424D01*
X232311420Y-122128357D01*
X232280554Y-122186406D01*
X232239011Y-122237343D01*
X232188356Y-122279248D01*
X232130529Y-122310515D01*
X232067728Y-122329956D01*
X231972165Y-122340000D01*
X212032419Y-122340000D01*
X212000000Y-122336807D01*
X211967581Y-122340000D01*
X211870617Y-122349550D01*
X211746207Y-122387290D01*
X211631550Y-122448575D01*
X211531052Y-122531052D01*
X211448575Y-122631550D01*
X211387290Y-122746207D01*
X211349550Y-122870617D01*
X211349315Y-122873000D01*
X206201801Y-122873000D01*
X207051004Y-122023798D01*
X207080001Y-122000001D01*
X207115431Y-121956830D01*
X207174974Y-121884277D01*
X207245546Y-121752247D01*
X207247320Y-121746398D01*
X207289003Y-121608986D01*
X207300000Y-121497333D01*
X207300000Y-121497323D01*
X207303676Y-121460000D01*
X207300000Y-121422678D01*
X207300000Y-121338313D01*
X207518505Y-121192312D01*
X207732312Y-120978505D01*
X207900299Y-120727095D01*
X208016011Y-120447743D01*
X208075000Y-120151184D01*
X208075000Y-120109117D01*
X208555000Y-120109117D01*
X208555000Y-120450883D01*
X208621675Y-120786081D01*
X208752463Y-121101831D01*
X208942337Y-121385998D01*
X209184002Y-121627663D01*
X209468169Y-121817537D01*
X209783919Y-121948325D01*
X210119117Y-122015000D01*
X210460883Y-122015000D01*
X210796081Y-121948325D01*
X211111831Y-121817537D01*
X211395998Y-121627663D01*
X211637663Y-121385998D01*
X211827537Y-121101831D01*
X211958325Y-120786081D01*
X212025000Y-120450883D01*
X212025000Y-120109117D01*
X211958325Y-119773919D01*
X211827537Y-119458169D01*
X211637663Y-119174002D01*
X211613661Y-119150000D01*
X221511928Y-119150000D01*
X221511928Y-120850000D01*
X221524188Y-120974482D01*
X221560498Y-121094180D01*
X221619463Y-121204494D01*
X221698815Y-121301185D01*
X221795506Y-121380537D01*
X221905820Y-121439502D01*
X222025518Y-121475812D01*
X222150000Y-121488072D01*
X223850000Y-121488072D01*
X223974482Y-121475812D01*
X224094180Y-121439502D01*
X224204494Y-121380537D01*
X224301185Y-121301185D01*
X224380537Y-121204494D01*
X224439502Y-121094180D01*
X224475812Y-120974482D01*
X224488072Y-120850000D01*
X224488072Y-119150000D01*
X224475812Y-119025518D01*
X224439502Y-118905820D01*
X224380537Y-118795506D01*
X224301185Y-118698815D01*
X224204494Y-118619463D01*
X224094180Y-118560498D01*
X224021620Y-118538487D01*
X224153475Y-118406632D01*
X224315990Y-118163411D01*
X224321544Y-118150000D01*
X227511928Y-118150000D01*
X227511928Y-119850000D01*
X227524188Y-119974482D01*
X227560498Y-120094180D01*
X227619463Y-120204494D01*
X227698815Y-120301185D01*
X227795506Y-120380537D01*
X227905820Y-120439502D01*
X228025518Y-120475812D01*
X228150000Y-120488072D01*
X229850000Y-120488072D01*
X229974482Y-120475812D01*
X230094180Y-120439502D01*
X230204494Y-120380537D01*
X230301185Y-120301185D01*
X230380537Y-120204494D01*
X230439502Y-120094180D01*
X230475812Y-119974482D01*
X230488072Y-119850000D01*
X230488072Y-118150000D01*
X230475812Y-118025518D01*
X230439502Y-117905820D01*
X230380537Y-117795506D01*
X230301185Y-117698815D01*
X230204494Y-117619463D01*
X230094180Y-117560498D01*
X229974482Y-117524188D01*
X229850000Y-117511928D01*
X228150000Y-117511928D01*
X228025518Y-117524188D01*
X227905820Y-117560498D01*
X227795506Y-117619463D01*
X227698815Y-117698815D01*
X227619463Y-117795506D01*
X227560498Y-117905820D01*
X227524188Y-118025518D01*
X227511928Y-118150000D01*
X224321544Y-118150000D01*
X224427932Y-117893158D01*
X224485000Y-117606260D01*
X224485000Y-117313740D01*
X224427932Y-117026842D01*
X224315990Y-116756589D01*
X224153475Y-116513368D01*
X223946632Y-116306525D01*
X223703411Y-116144010D01*
X223433158Y-116032068D01*
X223146260Y-115975000D01*
X222853740Y-115975000D01*
X222566842Y-116032068D01*
X222296589Y-116144010D01*
X222053368Y-116306525D01*
X221846525Y-116513368D01*
X221684010Y-116756589D01*
X221572068Y-117026842D01*
X221515000Y-117313740D01*
X221515000Y-117606260D01*
X221572068Y-117893158D01*
X221684010Y-118163411D01*
X221846525Y-118406632D01*
X221978380Y-118538487D01*
X221905820Y-118560498D01*
X221795506Y-118619463D01*
X221698815Y-118698815D01*
X221619463Y-118795506D01*
X221560498Y-118905820D01*
X221524188Y-119025518D01*
X221511928Y-119150000D01*
X211613661Y-119150000D01*
X211395998Y-118932337D01*
X211111831Y-118742463D01*
X210796081Y-118611675D01*
X210460883Y-118545000D01*
X210119117Y-118545000D01*
X209783919Y-118611675D01*
X209468169Y-118742463D01*
X209184002Y-118932337D01*
X208942337Y-119174002D01*
X208752463Y-119458169D01*
X208621675Y-119773919D01*
X208555000Y-120109117D01*
X208075000Y-120109117D01*
X208075000Y-119848816D01*
X208016011Y-119552257D01*
X207900299Y-119272905D01*
X207732312Y-119021495D01*
X207518505Y-118807688D01*
X207267095Y-118639701D01*
X206987743Y-118523989D01*
X206691184Y-118465000D01*
X206388816Y-118465000D01*
X206092257Y-118523989D01*
X205812905Y-118639701D01*
X205561495Y-118807688D01*
X205495056Y-118874127D01*
X205489502Y-118855820D01*
X205430537Y-118745506D01*
X205351185Y-118648815D01*
X205254494Y-118569463D01*
X205144180Y-118510498D01*
X205024482Y-118474188D01*
X204900000Y-118461928D01*
X203100000Y-118461928D01*
X202975518Y-118474188D01*
X202855820Y-118510498D01*
X202745506Y-118569463D01*
X202648815Y-118648815D01*
X202569463Y-118745506D01*
X202510498Y-118855820D01*
X202474188Y-118975518D01*
X202461928Y-119100000D01*
X202461928Y-120900000D01*
X202474188Y-121024482D01*
X202510498Y-121144180D01*
X202569463Y-121254494D01*
X202648815Y-121351185D01*
X202745506Y-121430537D01*
X202855820Y-121489502D01*
X202975518Y-121525812D01*
X203100000Y-121538072D01*
X204900000Y-121538072D01*
X205024482Y-121525812D01*
X205144180Y-121489502D01*
X205254494Y-121430537D01*
X205351185Y-121351185D01*
X205430537Y-121254494D01*
X205489502Y-121144180D01*
X205495056Y-121125873D01*
X205561495Y-121192312D01*
X205664237Y-121260962D01*
X205035209Y-121889990D01*
X200356914Y-121889990D01*
X200531831Y-121817537D01*
X200815998Y-121627663D01*
X201057663Y-121385998D01*
X201247537Y-121101831D01*
X201378325Y-120786081D01*
X201445000Y-120450883D01*
X201445000Y-120109117D01*
X201378325Y-119773919D01*
X201247537Y-119458169D01*
X201057663Y-119174002D01*
X200815998Y-118932337D01*
X200531831Y-118742463D01*
X200216081Y-118611675D01*
X199880883Y-118545000D01*
X199539117Y-118545000D01*
X199203919Y-118611675D01*
X198888169Y-118742463D01*
X198604002Y-118932337D01*
X198362337Y-119174002D01*
X198172463Y-119458169D01*
X198041675Y-119773919D01*
X197975000Y-120109117D01*
X197975000Y-120450883D01*
X198041675Y-120786081D01*
X198172463Y-121101831D01*
X198362337Y-121385998D01*
X198604002Y-121627663D01*
X198888169Y-121817537D01*
X199063086Y-121889990D01*
X193381638Y-121889990D01*
X193426300Y-121711816D01*
X193440217Y-121429488D01*
X193398787Y-121149870D01*
X193303603Y-120883708D01*
X193236671Y-120758486D01*
X192992702Y-120686903D01*
X192179605Y-121500000D01*
X192193748Y-121514143D01*
X192014143Y-121693748D01*
X192000000Y-121679605D01*
X191985858Y-121693748D01*
X191806253Y-121514143D01*
X191820395Y-121500000D01*
X191007298Y-120686903D01*
X190763329Y-120758486D01*
X190642429Y-121013996D01*
X190573700Y-121288184D01*
X190559783Y-121570512D01*
X190601213Y-121850130D01*
X190615468Y-121889990D01*
X187381638Y-121889990D01*
X187426300Y-121711816D01*
X187440217Y-121429488D01*
X187398787Y-121149870D01*
X187303603Y-120883708D01*
X187236671Y-120758486D01*
X186992702Y-120686903D01*
X186179605Y-121500000D01*
X186193748Y-121514143D01*
X186014143Y-121693748D01*
X186000000Y-121679605D01*
X185985858Y-121693748D01*
X185806253Y-121514143D01*
X185820395Y-121500000D01*
X185007298Y-120686903D01*
X184763329Y-120758486D01*
X184642429Y-121013996D01*
X184573700Y-121288184D01*
X184559783Y-121570512D01*
X184601213Y-121850130D01*
X184615468Y-121889990D01*
X180964792Y-121889990D01*
X179760000Y-120685199D01*
X179760000Y-120351398D01*
X179795506Y-120380537D01*
X179905820Y-120439502D01*
X180025518Y-120475812D01*
X180150000Y-120488072D01*
X181850000Y-120488072D01*
X181974482Y-120475812D01*
X182094180Y-120439502D01*
X182204494Y-120380537D01*
X182301185Y-120301185D01*
X182380537Y-120204494D01*
X182439502Y-120094180D01*
X182475812Y-119974482D01*
X182488072Y-119850000D01*
X182488072Y-118200000D01*
X184561928Y-118200000D01*
X184561928Y-119800000D01*
X184574188Y-119924482D01*
X184610498Y-120044180D01*
X184669463Y-120154494D01*
X184748815Y-120251185D01*
X184845506Y-120330537D01*
X184955820Y-120389502D01*
X185075518Y-120425812D01*
X185200000Y-120438072D01*
X185207215Y-120438072D01*
X185186903Y-120507298D01*
X186000000Y-121320395D01*
X186813097Y-120507298D01*
X186792785Y-120438072D01*
X186800000Y-120438072D01*
X186924482Y-120425812D01*
X187044180Y-120389502D01*
X187154494Y-120330537D01*
X187251185Y-120251185D01*
X187330537Y-120154494D01*
X187389502Y-120044180D01*
X187425812Y-119924482D01*
X187438072Y-119800000D01*
X187438072Y-118200000D01*
X190561928Y-118200000D01*
X190561928Y-119800000D01*
X190574188Y-119924482D01*
X190610498Y-120044180D01*
X190669463Y-120154494D01*
X190748815Y-120251185D01*
X190845506Y-120330537D01*
X190955820Y-120389502D01*
X191075518Y-120425812D01*
X191200000Y-120438072D01*
X191207215Y-120438072D01*
X191186903Y-120507298D01*
X192000000Y-121320395D01*
X192813097Y-120507298D01*
X192792785Y-120438072D01*
X192800000Y-120438072D01*
X192924482Y-120425812D01*
X193044180Y-120389502D01*
X193154494Y-120330537D01*
X193251185Y-120251185D01*
X193330537Y-120154494D01*
X193389502Y-120044180D01*
X193425812Y-119924482D01*
X193438072Y-119800000D01*
X193438072Y-118200000D01*
X193425812Y-118075518D01*
X193389502Y-117955820D01*
X193330537Y-117845506D01*
X193251185Y-117748815D01*
X193154494Y-117669463D01*
X193044180Y-117610498D01*
X192924482Y-117574188D01*
X192800000Y-117561928D01*
X191200000Y-117561928D01*
X191075518Y-117574188D01*
X190955820Y-117610498D01*
X190845506Y-117669463D01*
X190748815Y-117748815D01*
X190669463Y-117845506D01*
X190610498Y-117955820D01*
X190574188Y-118075518D01*
X190561928Y-118200000D01*
X187438072Y-118200000D01*
X187425812Y-118075518D01*
X187389502Y-117955820D01*
X187330537Y-117845506D01*
X187251185Y-117748815D01*
X187154494Y-117669463D01*
X187044180Y-117610498D01*
X186924482Y-117574188D01*
X186800000Y-117561928D01*
X185200000Y-117561928D01*
X185075518Y-117574188D01*
X184955820Y-117610498D01*
X184845506Y-117669463D01*
X184748815Y-117748815D01*
X184669463Y-117845506D01*
X184610498Y-117955820D01*
X184574188Y-118075518D01*
X184561928Y-118200000D01*
X182488072Y-118200000D01*
X182488072Y-118150000D01*
X182475812Y-118025518D01*
X182439502Y-117905820D01*
X182380537Y-117795506D01*
X182301185Y-117698815D01*
X182204494Y-117619463D01*
X182094180Y-117560498D01*
X181974482Y-117524188D01*
X181850000Y-117511928D01*
X180150000Y-117511928D01*
X180025518Y-117524188D01*
X179905820Y-117560498D01*
X179795506Y-117619463D01*
X179760000Y-117648602D01*
X179760000Y-116986712D01*
X195412893Y-116986712D01*
X195520726Y-117261338D01*
X195827384Y-117412216D01*
X196157585Y-117500369D01*
X196498639Y-117522409D01*
X196837439Y-117477489D01*
X197160966Y-117367336D01*
X197359274Y-117261338D01*
X197467107Y-116986712D01*
X196440000Y-115959605D01*
X195412893Y-116986712D01*
X179760000Y-116986712D01*
X179760000Y-116351398D01*
X179795506Y-116380537D01*
X179905820Y-116439502D01*
X180025518Y-116475812D01*
X180150000Y-116488072D01*
X180714250Y-116485000D01*
X180873000Y-116326250D01*
X180873000Y-115127000D01*
X181127000Y-115127000D01*
X181127000Y-116326250D01*
X181285750Y-116485000D01*
X181850000Y-116488072D01*
X181974482Y-116475812D01*
X182094180Y-116439502D01*
X182204494Y-116380537D01*
X182301185Y-116301185D01*
X182380537Y-116204494D01*
X182439502Y-116094180D01*
X182475812Y-115974482D01*
X182488072Y-115850000D01*
X182485000Y-115285750D01*
X182326250Y-115127000D01*
X181127000Y-115127000D01*
X180873000Y-115127000D01*
X180853000Y-115127000D01*
X180853000Y-114873000D01*
X180873000Y-114873000D01*
X180873000Y-113673750D01*
X181127000Y-113673750D01*
X181127000Y-114873000D01*
X182326250Y-114873000D01*
X182485000Y-114714250D01*
X182488072Y-114150000D01*
X182475812Y-114025518D01*
X182439502Y-113905820D01*
X182435355Y-113898061D01*
X193965000Y-113898061D01*
X193965000Y-114101939D01*
X194004774Y-114301898D01*
X194082795Y-114490256D01*
X194196063Y-114659774D01*
X194340226Y-114803937D01*
X194509744Y-114917205D01*
X194698102Y-114995226D01*
X194875159Y-115030445D01*
X194807784Y-115167384D01*
X194719631Y-115497585D01*
X194697591Y-115838639D01*
X194742511Y-116177439D01*
X194852664Y-116500966D01*
X194958662Y-116699274D01*
X195233288Y-116807107D01*
X196260395Y-115780000D01*
X196619605Y-115780000D01*
X197646712Y-116807107D01*
X197921338Y-116699274D01*
X198072216Y-116392616D01*
X198160369Y-116062415D01*
X198182409Y-115721361D01*
X198137489Y-115382561D01*
X198027336Y-115059034D01*
X197921338Y-114860726D01*
X197646712Y-114752893D01*
X196619605Y-115780000D01*
X196260395Y-115780000D01*
X196246253Y-115765858D01*
X196425858Y-115586253D01*
X196440000Y-115600395D01*
X197467107Y-114573288D01*
X197359274Y-114298662D01*
X197052616Y-114147784D01*
X196722415Y-114059631D01*
X196381361Y-114037591D01*
X196042561Y-114082511D01*
X196035000Y-114085085D01*
X196035000Y-114039801D01*
X197039802Y-113035000D01*
X197101939Y-113035000D01*
X197301898Y-112995226D01*
X197490256Y-112917205D01*
X197659774Y-112803937D01*
X197726397Y-112737314D01*
X202332905Y-112737314D01*
X202332905Y-113262686D01*
X202435400Y-113777963D01*
X202636451Y-114263343D01*
X202928332Y-114700174D01*
X203299826Y-115071668D01*
X203736657Y-115363549D01*
X204222037Y-115564600D01*
X204737314Y-115667095D01*
X205262686Y-115667095D01*
X205554160Y-115609117D01*
X211825000Y-115609117D01*
X211825000Y-115950883D01*
X211891675Y-116286081D01*
X212022463Y-116601831D01*
X212212337Y-116885998D01*
X212454002Y-117127663D01*
X212738169Y-117317537D01*
X213053919Y-117448325D01*
X213389117Y-117515000D01*
X213730883Y-117515000D01*
X214066081Y-117448325D01*
X214381831Y-117317537D01*
X214665998Y-117127663D01*
X214907663Y-116885998D01*
X215097537Y-116601831D01*
X215228325Y-116286081D01*
X215295000Y-115950883D01*
X215295000Y-115850000D01*
X227511928Y-115850000D01*
X227524188Y-115974482D01*
X227560498Y-116094180D01*
X227619463Y-116204494D01*
X227698815Y-116301185D01*
X227795506Y-116380537D01*
X227905820Y-116439502D01*
X228025518Y-116475812D01*
X228150000Y-116488072D01*
X228714250Y-116485000D01*
X228873000Y-116326250D01*
X228873000Y-115127000D01*
X229127000Y-115127000D01*
X229127000Y-116326250D01*
X229285750Y-116485000D01*
X229850000Y-116488072D01*
X229974482Y-116475812D01*
X230094180Y-116439502D01*
X230204494Y-116380537D01*
X230301185Y-116301185D01*
X230380537Y-116204494D01*
X230439502Y-116094180D01*
X230475812Y-115974482D01*
X230488072Y-115850000D01*
X230485000Y-115285750D01*
X230326250Y-115127000D01*
X229127000Y-115127000D01*
X228873000Y-115127000D01*
X227673750Y-115127000D01*
X227515000Y-115285750D01*
X227511928Y-115850000D01*
X215295000Y-115850000D01*
X215295000Y-115609117D01*
X215228325Y-115273919D01*
X215097537Y-114958169D01*
X214907663Y-114674002D01*
X214665998Y-114432337D01*
X214381831Y-114242463D01*
X214158606Y-114150000D01*
X227511928Y-114150000D01*
X227515000Y-114714250D01*
X227673750Y-114873000D01*
X228873000Y-114873000D01*
X228873000Y-113673750D01*
X229127000Y-113673750D01*
X229127000Y-114873000D01*
X230326250Y-114873000D01*
X230485000Y-114714250D01*
X230488072Y-114150000D01*
X230475812Y-114025518D01*
X230439502Y-113905820D01*
X230380537Y-113795506D01*
X230301185Y-113698815D01*
X230204494Y-113619463D01*
X230094180Y-113560498D01*
X229974482Y-113524188D01*
X229850000Y-113511928D01*
X229285750Y-113515000D01*
X229127000Y-113673750D01*
X228873000Y-113673750D01*
X228714250Y-113515000D01*
X228150000Y-113511928D01*
X228025518Y-113524188D01*
X227905820Y-113560498D01*
X227795506Y-113619463D01*
X227698815Y-113698815D01*
X227619463Y-113795506D01*
X227560498Y-113905820D01*
X227524188Y-114025518D01*
X227511928Y-114150000D01*
X214158606Y-114150000D01*
X214066081Y-114111675D01*
X213730883Y-114045000D01*
X213389117Y-114045000D01*
X213053919Y-114111675D01*
X212738169Y-114242463D01*
X212454002Y-114432337D01*
X212212337Y-114674002D01*
X212022463Y-114958169D01*
X211891675Y-115273919D01*
X211825000Y-115609117D01*
X205554160Y-115609117D01*
X205777963Y-115564600D01*
X206263343Y-115363549D01*
X206700174Y-115071668D01*
X207071668Y-114700174D01*
X207363549Y-114263343D01*
X207564600Y-113777963D01*
X207667095Y-113262686D01*
X207667095Y-112737314D01*
X207564600Y-112222037D01*
X207363549Y-111736657D01*
X207071668Y-111299826D01*
X206700174Y-110928332D01*
X206263343Y-110636451D01*
X205777963Y-110435400D01*
X205262686Y-110332905D01*
X204737314Y-110332905D01*
X204222037Y-110435400D01*
X203736657Y-110636451D01*
X203299826Y-110928332D01*
X202928332Y-111299826D01*
X202636451Y-111736657D01*
X202435400Y-112222037D01*
X202332905Y-112737314D01*
X197726397Y-112737314D01*
X197803937Y-112659774D01*
X197917205Y-112490256D01*
X197995226Y-112301898D01*
X198035000Y-112101939D01*
X198035000Y-111898061D01*
X197995226Y-111698102D01*
X197917205Y-111509744D01*
X197803937Y-111340226D01*
X197788483Y-111324772D01*
X197977537Y-111041831D01*
X198108325Y-110726081D01*
X198175000Y-110390883D01*
X198175000Y-110049117D01*
X198108325Y-109713919D01*
X197977537Y-109398169D01*
X197787663Y-109114002D01*
X197545998Y-108872337D01*
X197261831Y-108682463D01*
X196946081Y-108551675D01*
X196610883Y-108485000D01*
X196269117Y-108485000D01*
X195933919Y-108551675D01*
X195618169Y-108682463D01*
X195334002Y-108872337D01*
X195092337Y-109114002D01*
X194902463Y-109398169D01*
X194771675Y-109713919D01*
X194705000Y-110049117D01*
X194705000Y-110390883D01*
X194771675Y-110726081D01*
X194902463Y-111041831D01*
X195092337Y-111325998D01*
X195334002Y-111567663D01*
X195618169Y-111757537D01*
X195933919Y-111888325D01*
X195965680Y-111894643D01*
X195965000Y-111898061D01*
X195965000Y-111960198D01*
X194960199Y-112965000D01*
X194898061Y-112965000D01*
X194698102Y-113004774D01*
X194509744Y-113082795D01*
X194340226Y-113196063D01*
X194196063Y-113340226D01*
X194082795Y-113509744D01*
X194004774Y-113698102D01*
X193965000Y-113898061D01*
X182435355Y-113898061D01*
X182380537Y-113795506D01*
X182301185Y-113698815D01*
X182204494Y-113619463D01*
X182094180Y-113560498D01*
X181974482Y-113524188D01*
X181850000Y-113511928D01*
X181285750Y-113515000D01*
X181127000Y-113673750D01*
X180873000Y-113673750D01*
X180714250Y-113515000D01*
X180150000Y-113511928D01*
X180025518Y-113524188D01*
X179905820Y-113560498D01*
X179795506Y-113619463D01*
X179760000Y-113648602D01*
X179760000Y-112351398D01*
X179795506Y-112380537D01*
X179905820Y-112439502D01*
X180025518Y-112475812D01*
X180150000Y-112488072D01*
X181850000Y-112488072D01*
X181974482Y-112475812D01*
X182094180Y-112439502D01*
X182204494Y-112380537D01*
X182301185Y-112301185D01*
X182380537Y-112204494D01*
X182439502Y-112094180D01*
X182475812Y-111974482D01*
X182488072Y-111850000D01*
X182488072Y-110150000D01*
X182475812Y-110025518D01*
X182439502Y-109905820D01*
X182380537Y-109795506D01*
X182351398Y-109760000D01*
X186296289Y-109760000D01*
X186340226Y-109803937D01*
X186509744Y-109917205D01*
X186698102Y-109995226D01*
X186898061Y-110035000D01*
X187101939Y-110035000D01*
X187301898Y-109995226D01*
X187490256Y-109917205D01*
X187659774Y-109803937D01*
X187803937Y-109659774D01*
X187917205Y-109490256D01*
X187995226Y-109301898D01*
X188035000Y-109101939D01*
X188035000Y-108898061D01*
X187995226Y-108698102D01*
X187917205Y-108509744D01*
X187803937Y-108340226D01*
X187659774Y-108196063D01*
X187490256Y-108082795D01*
X187301898Y-108004774D01*
X187101939Y-107965000D01*
X186898061Y-107965000D01*
X186698102Y-108004774D01*
X186509744Y-108082795D01*
X186340226Y-108196063D01*
X186296289Y-108240000D01*
X180037333Y-108240000D01*
X180000000Y-108236323D01*
X179962667Y-108240000D01*
X179851014Y-108250997D01*
X179707753Y-108294454D01*
X179575724Y-108365026D01*
X179459999Y-108459999D01*
X179436201Y-108488997D01*
X178489002Y-109436196D01*
X178459999Y-109459999D01*
X178407321Y-109524188D01*
X178365026Y-109575724D01*
X178341647Y-109619463D01*
X178294454Y-109707754D01*
X178250997Y-109851015D01*
X178240000Y-109962668D01*
X178240000Y-109962678D01*
X178236324Y-110000000D01*
X178240000Y-110037322D01*
X178240001Y-120962668D01*
X178236324Y-121000000D01*
X178250998Y-121148985D01*
X178294454Y-121292246D01*
X178365026Y-121424276D01*
X178424982Y-121497332D01*
X178460000Y-121540001D01*
X178488998Y-121563799D01*
X179265199Y-122340000D01*
X178032279Y-122340000D01*
X177934576Y-122330420D01*
X177871643Y-122311420D01*
X177813594Y-122280554D01*
X177762657Y-122239011D01*
X177720752Y-122188356D01*
X177689485Y-122130529D01*
X177670044Y-122067728D01*
X177660000Y-121972165D01*
X177660000Y-103256602D01*
X181923003Y-103256602D01*
X182039275Y-103538389D01*
X182357860Y-103696257D01*
X182701122Y-103788938D01*
X183055869Y-103812873D01*
X183408470Y-103767139D01*
X183745373Y-103653495D01*
X183960725Y-103538389D01*
X184076997Y-103256602D01*
X183000000Y-102179605D01*
X181923003Y-103256602D01*
X177660000Y-103256602D01*
X177660000Y-102055869D01*
X181187127Y-102055869D01*
X181232861Y-102408470D01*
X181346505Y-102745373D01*
X181461611Y-102960725D01*
X181743398Y-103076997D01*
X182820395Y-102000000D01*
X183179605Y-102000000D01*
X184256602Y-103076997D01*
X184538389Y-102960725D01*
X184696257Y-102642140D01*
X184788938Y-102298878D01*
X184812873Y-101944131D01*
X184767139Y-101591530D01*
X184653495Y-101254627D01*
X184538389Y-101039275D01*
X184256602Y-100923003D01*
X183179605Y-102000000D01*
X182820395Y-102000000D01*
X181743398Y-100923003D01*
X181461611Y-101039275D01*
X181303743Y-101357860D01*
X181211062Y-101701122D01*
X181187127Y-102055869D01*
X177660000Y-102055869D01*
X177660000Y-101032279D01*
X177669580Y-100934576D01*
X177688580Y-100871644D01*
X177719445Y-100813595D01*
X177760989Y-100762657D01*
X177811644Y-100720752D01*
X177869471Y-100689485D01*
X177932272Y-100670044D01*
X178027835Y-100660000D01*
X181957415Y-100660000D01*
X181923003Y-100743398D01*
X183000000Y-101820395D01*
X184076997Y-100743398D01*
X184042585Y-100660000D01*
X186787344Y-100660000D01*
X186597965Y-100849379D01*
X186400429Y-101145012D01*
X186264365Y-101473501D01*
X186195000Y-101822223D01*
X186195000Y-102177777D01*
X186264365Y-102526499D01*
X186400429Y-102854988D01*
X186597965Y-103150621D01*
X186849379Y-103402035D01*
X187145012Y-103599571D01*
X187473501Y-103735635D01*
X187822223Y-103805000D01*
X188177777Y-103805000D01*
X188526499Y-103735635D01*
X188621488Y-103696289D01*
X192936200Y-108011002D01*
X192959999Y-108040001D01*
X192988997Y-108063799D01*
X193075724Y-108134974D01*
X193207753Y-108205546D01*
X193351014Y-108249003D01*
X193500000Y-108263677D01*
X193537333Y-108260000D01*
X210525199Y-108260000D01*
X211917286Y-109652088D01*
X211891675Y-109713919D01*
X211825000Y-110049117D01*
X211825000Y-110390883D01*
X211891675Y-110726081D01*
X212022463Y-111041831D01*
X212212337Y-111325998D01*
X212454002Y-111567663D01*
X212738169Y-111757537D01*
X213053919Y-111888325D01*
X213389117Y-111955000D01*
X213730883Y-111955000D01*
X214066081Y-111888325D01*
X214381831Y-111757537D01*
X214665998Y-111567663D01*
X214907663Y-111325998D01*
X215097537Y-111041831D01*
X215228325Y-110726081D01*
X215295000Y-110390883D01*
X215295000Y-110150000D01*
X227511928Y-110150000D01*
X227511928Y-111850000D01*
X227524188Y-111974482D01*
X227560498Y-112094180D01*
X227619463Y-112204494D01*
X227698815Y-112301185D01*
X227795506Y-112380537D01*
X227905820Y-112439502D01*
X228025518Y-112475812D01*
X228150000Y-112488072D01*
X229850000Y-112488072D01*
X229974482Y-112475812D01*
X230094180Y-112439502D01*
X230204494Y-112380537D01*
X230301185Y-112301185D01*
X230380537Y-112204494D01*
X230439502Y-112094180D01*
X230475812Y-111974482D01*
X230488072Y-111850000D01*
X230488072Y-110150000D01*
X230475812Y-110025518D01*
X230439502Y-109905820D01*
X230380537Y-109795506D01*
X230301185Y-109698815D01*
X230204494Y-109619463D01*
X230094180Y-109560498D01*
X229974482Y-109524188D01*
X229850000Y-109511928D01*
X228150000Y-109511928D01*
X228025518Y-109524188D01*
X227905820Y-109560498D01*
X227795506Y-109619463D01*
X227698815Y-109698815D01*
X227619463Y-109795506D01*
X227560498Y-109905820D01*
X227524188Y-110025518D01*
X227511928Y-110150000D01*
X215295000Y-110150000D01*
X215295000Y-110049117D01*
X215228325Y-109713919D01*
X215097537Y-109398169D01*
X214907663Y-109114002D01*
X214665998Y-108872337D01*
X214381831Y-108682463D01*
X214066081Y-108551675D01*
X213730883Y-108485000D01*
X213389117Y-108485000D01*
X213053919Y-108551675D01*
X212992088Y-108577286D01*
X211403804Y-106989003D01*
X211380001Y-106959999D01*
X211264276Y-106865026D01*
X211245253Y-106854858D01*
X210290000Y-105899605D01*
X210275858Y-105913748D01*
X210096253Y-105734143D01*
X210110395Y-105720000D01*
X210469605Y-105720000D01*
X211496712Y-106747107D01*
X211771338Y-106639274D01*
X211922216Y-106332616D01*
X212010369Y-106002415D01*
X212032409Y-105661361D01*
X211987489Y-105322561D01*
X211877336Y-104999034D01*
X211771338Y-104800726D01*
X211496712Y-104692893D01*
X210469605Y-105720000D01*
X210110395Y-105720000D01*
X209083288Y-104692893D01*
X208808662Y-104800726D01*
X208657784Y-105107384D01*
X208569631Y-105437585D01*
X208547591Y-105778639D01*
X208592511Y-106117439D01*
X208702664Y-106440966D01*
X208808662Y-106639274D01*
X209065188Y-106740000D01*
X201115125Y-106740000D01*
X201247537Y-106541831D01*
X201378325Y-106226081D01*
X201445000Y-105890883D01*
X201445000Y-105549117D01*
X201378325Y-105213919D01*
X201247537Y-104898169D01*
X201057663Y-104614002D01*
X200815998Y-104372337D01*
X200531831Y-104182463D01*
X200216081Y-104051675D01*
X199880883Y-103985000D01*
X199539117Y-103985000D01*
X199203919Y-104051675D01*
X198888169Y-104182463D01*
X198604002Y-104372337D01*
X198362337Y-104614002D01*
X198172463Y-104898169D01*
X198041675Y-105213919D01*
X197975000Y-105549117D01*
X197975000Y-105890883D01*
X198041675Y-106226081D01*
X198172463Y-106541831D01*
X198304875Y-106740000D01*
X193814802Y-106740000D01*
X190903919Y-103829117D01*
X203265000Y-103829117D01*
X203265000Y-104170883D01*
X203331675Y-104506081D01*
X203462463Y-104821831D01*
X203652337Y-105105998D01*
X203894002Y-105347663D01*
X204178169Y-105537537D01*
X204493919Y-105668325D01*
X204829117Y-105735000D01*
X205170883Y-105735000D01*
X205506081Y-105668325D01*
X205821831Y-105537537D01*
X206105998Y-105347663D01*
X206347663Y-105105998D01*
X206537537Y-104821831D01*
X206665339Y-104513288D01*
X209262893Y-104513288D01*
X210290000Y-105540395D01*
X211317107Y-104513288D01*
X211209274Y-104238662D01*
X210902616Y-104087784D01*
X210572415Y-103999631D01*
X210231361Y-103977591D01*
X209892561Y-104022511D01*
X209569034Y-104132664D01*
X209370726Y-104238662D01*
X209262893Y-104513288D01*
X206665339Y-104513288D01*
X206668325Y-104506081D01*
X206735000Y-104170883D01*
X206735000Y-103829117D01*
X206668325Y-103493919D01*
X206537537Y-103178169D01*
X206347663Y-102894002D01*
X206105998Y-102652337D01*
X205821831Y-102462463D01*
X205506081Y-102331675D01*
X205170883Y-102265000D01*
X204829117Y-102265000D01*
X204493919Y-102331675D01*
X204178169Y-102462463D01*
X203894002Y-102652337D01*
X203652337Y-102894002D01*
X203462463Y-103178169D01*
X203331675Y-103493919D01*
X203265000Y-103829117D01*
X190903919Y-103829117D01*
X189696289Y-102621488D01*
X189735635Y-102526499D01*
X189805000Y-102177777D01*
X189805000Y-101822223D01*
X189735635Y-101473501D01*
X189599571Y-101145012D01*
X189402035Y-100849379D01*
X189212656Y-100660000D01*
X191787344Y-100660000D01*
X191597965Y-100849379D01*
X191400429Y-101145012D01*
X191264365Y-101473501D01*
X191195000Y-101822223D01*
X191195000Y-102177777D01*
X191264365Y-102526499D01*
X191400429Y-102854988D01*
X191597965Y-103150621D01*
X191849379Y-103402035D01*
X192145012Y-103599571D01*
X192473501Y-103735635D01*
X192822223Y-103805000D01*
X193177777Y-103805000D01*
X193526499Y-103735635D01*
X193854988Y-103599571D01*
X194150621Y-103402035D01*
X194402035Y-103150621D01*
X194599571Y-102854988D01*
X194735635Y-102526499D01*
X194805000Y-102177777D01*
X194805000Y-101822223D01*
X194735635Y-101473501D01*
X194599571Y-101145012D01*
X194402035Y-100849379D01*
X194212656Y-100660000D01*
X197967581Y-100660000D01*
X198000000Y-100663193D01*
X198032419Y-100660000D01*
X198129383Y-100650450D01*
X198253793Y-100612710D01*
X198368450Y-100551425D01*
X198468948Y-100468948D01*
X198551425Y-100368450D01*
X198612710Y-100253793D01*
X198650450Y-100129383D01*
X198650685Y-100127000D01*
X211349315Y-100127000D01*
X211349550Y-100129383D01*
%TA.AperFunction,Conductor*%
D21*
G36*
X211349550Y-100129383D02*
G01*
X211387290Y-100253793D01*
X211448575Y-100368450D01*
X211531052Y-100468948D01*
X211631550Y-100551425D01*
X211746207Y-100612710D01*
X211870617Y-100650450D01*
X211967581Y-100660000D01*
X212000000Y-100663193D01*
X212032419Y-100660000D01*
X215787344Y-100660000D01*
X215597965Y-100849379D01*
X215400429Y-101145012D01*
X215264365Y-101473501D01*
X215195000Y-101822223D01*
X215195000Y-102177777D01*
X215264365Y-102526499D01*
X215400429Y-102854988D01*
X215597965Y-103150621D01*
X215849379Y-103402035D01*
X216145012Y-103599571D01*
X216473501Y-103735635D01*
X216822223Y-103805000D01*
X217177777Y-103805000D01*
X217526499Y-103735635D01*
X217854988Y-103599571D01*
X218150621Y-103402035D01*
X218402035Y-103150621D01*
X218599571Y-102854988D01*
X218735635Y-102526499D01*
X218805000Y-102177777D01*
X218805000Y-101822223D01*
X218735635Y-101473501D01*
X218599571Y-101145012D01*
X218402035Y-100849379D01*
X218212656Y-100660000D01*
X220787344Y-100660000D01*
X220597965Y-100849379D01*
X220400429Y-101145012D01*
X220264365Y-101473501D01*
X220195000Y-101822223D01*
X220195000Y-102177777D01*
X220264365Y-102526499D01*
X220400429Y-102854988D01*
X220597965Y-103150621D01*
X220849379Y-103402035D01*
X221145012Y-103599571D01*
X221473501Y-103735635D01*
X221822223Y-103805000D01*
X222177777Y-103805000D01*
X222526499Y-103735635D01*
X222854988Y-103599571D01*
X223150621Y-103402035D01*
X223296054Y-103256602D01*
X225923003Y-103256602D01*
X226039275Y-103538389D01*
X226357860Y-103696257D01*
X226701122Y-103788938D01*
X227055869Y-103812873D01*
X227408470Y-103767139D01*
X227745373Y-103653495D01*
X227960725Y-103538389D01*
X228076997Y-103256602D01*
X227000000Y-102179605D01*
X225923003Y-103256602D01*
X223296054Y-103256602D01*
X223402035Y-103150621D01*
X223599571Y-102854988D01*
X223735635Y-102526499D01*
X223805000Y-102177777D01*
X223805000Y-102055869D01*
X225187127Y-102055869D01*
X225232861Y-102408470D01*
X225346505Y-102745373D01*
X225461611Y-102960725D01*
X225743398Y-103076997D01*
X226820395Y-102000000D01*
X227179605Y-102000000D01*
X228256602Y-103076997D01*
X228538389Y-102960725D01*
X228696257Y-102642140D01*
X228788938Y-102298878D01*
X228812873Y-101944131D01*
X228767139Y-101591530D01*
X228653495Y-101254627D01*
X228538389Y-101039275D01*
X228256602Y-100923003D01*
X227179605Y-102000000D01*
X226820395Y-102000000D01*
X225743398Y-100923003D01*
X225461611Y-101039275D01*
X225303743Y-101357860D01*
X225211062Y-101701122D01*
X225187127Y-102055869D01*
X223805000Y-102055869D01*
X223805000Y-101822223D01*
X223735635Y-101473501D01*
X223599571Y-101145012D01*
X223402035Y-100849379D01*
X223212656Y-100660000D01*
X225957415Y-100660000D01*
X225923003Y-100743398D01*
X227000000Y-101820395D01*
X228076997Y-100743398D01*
X228042585Y-100660000D01*
X231967721Y-100660000D01*
X232065424Y-100669580D01*
X232128356Y-100688580D01*
X232186405Y-100719445D01*
X232237343Y-100760989D01*
X232279248Y-100811644D01*
X232310515Y-100869471D01*
X232329956Y-100932272D01*
X232340001Y-101027845D01*
X232340000Y-121967721D01*
X232330420Y-122065424D01*
X232311420Y-122128357D01*
X232280554Y-122186406D01*
X232239011Y-122237343D01*
X232188356Y-122279248D01*
X232130529Y-122310515D01*
X232067728Y-122329956D01*
X231972165Y-122340000D01*
X212032419Y-122340000D01*
X212000000Y-122336807D01*
X211967581Y-122340000D01*
X211870617Y-122349550D01*
X211746207Y-122387290D01*
X211631550Y-122448575D01*
X211531052Y-122531052D01*
X211448575Y-122631550D01*
X211387290Y-122746207D01*
X211349550Y-122870617D01*
X211349315Y-122873000D01*
X206201801Y-122873000D01*
X207051004Y-122023798D01*
X207080001Y-122000001D01*
X207115431Y-121956830D01*
X207174974Y-121884277D01*
X207245546Y-121752247D01*
X207247320Y-121746398D01*
X207289003Y-121608986D01*
X207300000Y-121497333D01*
X207300000Y-121497323D01*
X207303676Y-121460000D01*
X207300000Y-121422678D01*
X207300000Y-121338313D01*
X207518505Y-121192312D01*
X207732312Y-120978505D01*
X207900299Y-120727095D01*
X208016011Y-120447743D01*
X208075000Y-120151184D01*
X208075000Y-120109117D01*
X208555000Y-120109117D01*
X208555000Y-120450883D01*
X208621675Y-120786081D01*
X208752463Y-121101831D01*
X208942337Y-121385998D01*
X209184002Y-121627663D01*
X209468169Y-121817537D01*
X209783919Y-121948325D01*
X210119117Y-122015000D01*
X210460883Y-122015000D01*
X210796081Y-121948325D01*
X211111831Y-121817537D01*
X211395998Y-121627663D01*
X211637663Y-121385998D01*
X211827537Y-121101831D01*
X211958325Y-120786081D01*
X212025000Y-120450883D01*
X212025000Y-120109117D01*
X211958325Y-119773919D01*
X211827537Y-119458169D01*
X211637663Y-119174002D01*
X211613661Y-119150000D01*
X221511928Y-119150000D01*
X221511928Y-120850000D01*
X221524188Y-120974482D01*
X221560498Y-121094180D01*
X221619463Y-121204494D01*
X221698815Y-121301185D01*
X221795506Y-121380537D01*
X221905820Y-121439502D01*
X222025518Y-121475812D01*
X222150000Y-121488072D01*
X223850000Y-121488072D01*
X223974482Y-121475812D01*
X224094180Y-121439502D01*
X224204494Y-121380537D01*
X224301185Y-121301185D01*
X224380537Y-121204494D01*
X224439502Y-121094180D01*
X224475812Y-120974482D01*
X224488072Y-120850000D01*
X224488072Y-119150000D01*
X224475812Y-119025518D01*
X224439502Y-118905820D01*
X224380537Y-118795506D01*
X224301185Y-118698815D01*
X224204494Y-118619463D01*
X224094180Y-118560498D01*
X224021620Y-118538487D01*
X224153475Y-118406632D01*
X224315990Y-118163411D01*
X224321544Y-118150000D01*
X227511928Y-118150000D01*
X227511928Y-119850000D01*
X227524188Y-119974482D01*
X227560498Y-120094180D01*
X227619463Y-120204494D01*
X227698815Y-120301185D01*
X227795506Y-120380537D01*
X227905820Y-120439502D01*
X228025518Y-120475812D01*
X228150000Y-120488072D01*
X229850000Y-120488072D01*
X229974482Y-120475812D01*
X230094180Y-120439502D01*
X230204494Y-120380537D01*
X230301185Y-120301185D01*
X230380537Y-120204494D01*
X230439502Y-120094180D01*
X230475812Y-119974482D01*
X230488072Y-119850000D01*
X230488072Y-118150000D01*
X230475812Y-118025518D01*
X230439502Y-117905820D01*
X230380537Y-117795506D01*
X230301185Y-117698815D01*
X230204494Y-117619463D01*
X230094180Y-117560498D01*
X229974482Y-117524188D01*
X229850000Y-117511928D01*
X228150000Y-117511928D01*
X228025518Y-117524188D01*
X227905820Y-117560498D01*
X227795506Y-117619463D01*
X227698815Y-117698815D01*
X227619463Y-117795506D01*
X227560498Y-117905820D01*
X227524188Y-118025518D01*
X227511928Y-118150000D01*
X224321544Y-118150000D01*
X224427932Y-117893158D01*
X224485000Y-117606260D01*
X224485000Y-117313740D01*
X224427932Y-117026842D01*
X224315990Y-116756589D01*
X224153475Y-116513368D01*
X223946632Y-116306525D01*
X223703411Y-116144010D01*
X223433158Y-116032068D01*
X223146260Y-115975000D01*
X222853740Y-115975000D01*
X222566842Y-116032068D01*
X222296589Y-116144010D01*
X222053368Y-116306525D01*
X221846525Y-116513368D01*
X221684010Y-116756589D01*
X221572068Y-117026842D01*
X221515000Y-117313740D01*
X221515000Y-117606260D01*
X221572068Y-117893158D01*
X221684010Y-118163411D01*
X221846525Y-118406632D01*
X221978380Y-118538487D01*
X221905820Y-118560498D01*
X221795506Y-118619463D01*
X221698815Y-118698815D01*
X221619463Y-118795506D01*
X221560498Y-118905820D01*
X221524188Y-119025518D01*
X221511928Y-119150000D01*
X211613661Y-119150000D01*
X211395998Y-118932337D01*
X211111831Y-118742463D01*
X210796081Y-118611675D01*
X210460883Y-118545000D01*
X210119117Y-118545000D01*
X209783919Y-118611675D01*
X209468169Y-118742463D01*
X209184002Y-118932337D01*
X208942337Y-119174002D01*
X208752463Y-119458169D01*
X208621675Y-119773919D01*
X208555000Y-120109117D01*
X208075000Y-120109117D01*
X208075000Y-119848816D01*
X208016011Y-119552257D01*
X207900299Y-119272905D01*
X207732312Y-119021495D01*
X207518505Y-118807688D01*
X207267095Y-118639701D01*
X206987743Y-118523989D01*
X206691184Y-118465000D01*
X206388816Y-118465000D01*
X206092257Y-118523989D01*
X205812905Y-118639701D01*
X205561495Y-118807688D01*
X205495056Y-118874127D01*
X205489502Y-118855820D01*
X205430537Y-118745506D01*
X205351185Y-118648815D01*
X205254494Y-118569463D01*
X205144180Y-118510498D01*
X205024482Y-118474188D01*
X204900000Y-118461928D01*
X203100000Y-118461928D01*
X202975518Y-118474188D01*
X202855820Y-118510498D01*
X202745506Y-118569463D01*
X202648815Y-118648815D01*
X202569463Y-118745506D01*
X202510498Y-118855820D01*
X202474188Y-118975518D01*
X202461928Y-119100000D01*
X202461928Y-120900000D01*
X202474188Y-121024482D01*
X202510498Y-121144180D01*
X202569463Y-121254494D01*
X202648815Y-121351185D01*
X202745506Y-121430537D01*
X202855820Y-121489502D01*
X202975518Y-121525812D01*
X203100000Y-121538072D01*
X204900000Y-121538072D01*
X205024482Y-121525812D01*
X205144180Y-121489502D01*
X205254494Y-121430537D01*
X205351185Y-121351185D01*
X205430537Y-121254494D01*
X205489502Y-121144180D01*
X205495056Y-121125873D01*
X205561495Y-121192312D01*
X205664237Y-121260962D01*
X205035209Y-121889990D01*
X200356914Y-121889990D01*
X200531831Y-121817537D01*
X200815998Y-121627663D01*
X201057663Y-121385998D01*
X201247537Y-121101831D01*
X201378325Y-120786081D01*
X201445000Y-120450883D01*
X201445000Y-120109117D01*
X201378325Y-119773919D01*
X201247537Y-119458169D01*
X201057663Y-119174002D01*
X200815998Y-118932337D01*
X200531831Y-118742463D01*
X200216081Y-118611675D01*
X199880883Y-118545000D01*
X199539117Y-118545000D01*
X199203919Y-118611675D01*
X198888169Y-118742463D01*
X198604002Y-118932337D01*
X198362337Y-119174002D01*
X198172463Y-119458169D01*
X198041675Y-119773919D01*
X197975000Y-120109117D01*
X197975000Y-120450883D01*
X198041675Y-120786081D01*
X198172463Y-121101831D01*
X198362337Y-121385998D01*
X198604002Y-121627663D01*
X198888169Y-121817537D01*
X199063086Y-121889990D01*
X193381638Y-121889990D01*
X193426300Y-121711816D01*
X193440217Y-121429488D01*
X193398787Y-121149870D01*
X193303603Y-120883708D01*
X193236671Y-120758486D01*
X192992702Y-120686903D01*
X192179605Y-121500000D01*
X192193748Y-121514143D01*
X192014143Y-121693748D01*
X192000000Y-121679605D01*
X191985858Y-121693748D01*
X191806253Y-121514143D01*
X191820395Y-121500000D01*
X191007298Y-120686903D01*
X190763329Y-120758486D01*
X190642429Y-121013996D01*
X190573700Y-121288184D01*
X190559783Y-121570512D01*
X190601213Y-121850130D01*
X190615468Y-121889990D01*
X187381638Y-121889990D01*
X187426300Y-121711816D01*
X187440217Y-121429488D01*
X187398787Y-121149870D01*
X187303603Y-120883708D01*
X187236671Y-120758486D01*
X186992702Y-120686903D01*
X186179605Y-121500000D01*
X186193748Y-121514143D01*
X186014143Y-121693748D01*
X186000000Y-121679605D01*
X185985858Y-121693748D01*
X185806253Y-121514143D01*
X185820395Y-121500000D01*
X185007298Y-120686903D01*
X184763329Y-120758486D01*
X184642429Y-121013996D01*
X184573700Y-121288184D01*
X184559783Y-121570512D01*
X184601213Y-121850130D01*
X184615468Y-121889990D01*
X180964792Y-121889990D01*
X179760000Y-120685199D01*
X179760000Y-120351398D01*
X179795506Y-120380537D01*
X179905820Y-120439502D01*
X180025518Y-120475812D01*
X180150000Y-120488072D01*
X181850000Y-120488072D01*
X181974482Y-120475812D01*
X182094180Y-120439502D01*
X182204494Y-120380537D01*
X182301185Y-120301185D01*
X182380537Y-120204494D01*
X182439502Y-120094180D01*
X182475812Y-119974482D01*
X182488072Y-119850000D01*
X182488072Y-118200000D01*
X184561928Y-118200000D01*
X184561928Y-119800000D01*
X184574188Y-119924482D01*
X184610498Y-120044180D01*
X184669463Y-120154494D01*
X184748815Y-120251185D01*
X184845506Y-120330537D01*
X184955820Y-120389502D01*
X185075518Y-120425812D01*
X185200000Y-120438072D01*
X185207215Y-120438072D01*
X185186903Y-120507298D01*
X186000000Y-121320395D01*
X186813097Y-120507298D01*
X186792785Y-120438072D01*
X186800000Y-120438072D01*
X186924482Y-120425812D01*
X187044180Y-120389502D01*
X187154494Y-120330537D01*
X187251185Y-120251185D01*
X187330537Y-120154494D01*
X187389502Y-120044180D01*
X187425812Y-119924482D01*
X187438072Y-119800000D01*
X187438072Y-118200000D01*
X190561928Y-118200000D01*
X190561928Y-119800000D01*
X190574188Y-119924482D01*
X190610498Y-120044180D01*
X190669463Y-120154494D01*
X190748815Y-120251185D01*
X190845506Y-120330537D01*
X190955820Y-120389502D01*
X191075518Y-120425812D01*
X191200000Y-120438072D01*
X191207215Y-120438072D01*
X191186903Y-120507298D01*
X192000000Y-121320395D01*
X192813097Y-120507298D01*
X192792785Y-120438072D01*
X192800000Y-120438072D01*
X192924482Y-120425812D01*
X193044180Y-120389502D01*
X193154494Y-120330537D01*
X193251185Y-120251185D01*
X193330537Y-120154494D01*
X193389502Y-120044180D01*
X193425812Y-119924482D01*
X193438072Y-119800000D01*
X193438072Y-118200000D01*
X193425812Y-118075518D01*
X193389502Y-117955820D01*
X193330537Y-117845506D01*
X193251185Y-117748815D01*
X193154494Y-117669463D01*
X193044180Y-117610498D01*
X192924482Y-117574188D01*
X192800000Y-117561928D01*
X191200000Y-117561928D01*
X191075518Y-117574188D01*
X190955820Y-117610498D01*
X190845506Y-117669463D01*
X190748815Y-117748815D01*
X190669463Y-117845506D01*
X190610498Y-117955820D01*
X190574188Y-118075518D01*
X190561928Y-118200000D01*
X187438072Y-118200000D01*
X187425812Y-118075518D01*
X187389502Y-117955820D01*
X187330537Y-117845506D01*
X187251185Y-117748815D01*
X187154494Y-117669463D01*
X187044180Y-117610498D01*
X186924482Y-117574188D01*
X186800000Y-117561928D01*
X185200000Y-117561928D01*
X185075518Y-117574188D01*
X184955820Y-117610498D01*
X184845506Y-117669463D01*
X184748815Y-117748815D01*
X184669463Y-117845506D01*
X184610498Y-117955820D01*
X184574188Y-118075518D01*
X184561928Y-118200000D01*
X182488072Y-118200000D01*
X182488072Y-118150000D01*
X182475812Y-118025518D01*
X182439502Y-117905820D01*
X182380537Y-117795506D01*
X182301185Y-117698815D01*
X182204494Y-117619463D01*
X182094180Y-117560498D01*
X181974482Y-117524188D01*
X181850000Y-117511928D01*
X180150000Y-117511928D01*
X180025518Y-117524188D01*
X179905820Y-117560498D01*
X179795506Y-117619463D01*
X179760000Y-117648602D01*
X179760000Y-116986712D01*
X195412893Y-116986712D01*
X195520726Y-117261338D01*
X195827384Y-117412216D01*
X196157585Y-117500369D01*
X196498639Y-117522409D01*
X196837439Y-117477489D01*
X197160966Y-117367336D01*
X197359274Y-117261338D01*
X197467107Y-116986712D01*
X196440000Y-115959605D01*
X195412893Y-116986712D01*
X179760000Y-116986712D01*
X179760000Y-116351398D01*
X179795506Y-116380537D01*
X179905820Y-116439502D01*
X180025518Y-116475812D01*
X180150000Y-116488072D01*
X180714250Y-116485000D01*
X180873000Y-116326250D01*
X180873000Y-115127000D01*
X181127000Y-115127000D01*
X181127000Y-116326250D01*
X181285750Y-116485000D01*
X181850000Y-116488072D01*
X181974482Y-116475812D01*
X182094180Y-116439502D01*
X182204494Y-116380537D01*
X182301185Y-116301185D01*
X182380537Y-116204494D01*
X182439502Y-116094180D01*
X182475812Y-115974482D01*
X182488072Y-115850000D01*
X182485000Y-115285750D01*
X182326250Y-115127000D01*
X181127000Y-115127000D01*
X180873000Y-115127000D01*
X180853000Y-115127000D01*
X180853000Y-114873000D01*
X180873000Y-114873000D01*
X180873000Y-113673750D01*
X181127000Y-113673750D01*
X181127000Y-114873000D01*
X182326250Y-114873000D01*
X182485000Y-114714250D01*
X182488072Y-114150000D01*
X182475812Y-114025518D01*
X182439502Y-113905820D01*
X182435355Y-113898061D01*
X193965000Y-113898061D01*
X193965000Y-114101939D01*
X194004774Y-114301898D01*
X194082795Y-114490256D01*
X194196063Y-114659774D01*
X194340226Y-114803937D01*
X194509744Y-114917205D01*
X194698102Y-114995226D01*
X194875159Y-115030445D01*
X194807784Y-115167384D01*
X194719631Y-115497585D01*
X194697591Y-115838639D01*
X194742511Y-116177439D01*
X194852664Y-116500966D01*
X194958662Y-116699274D01*
X195233288Y-116807107D01*
X196260395Y-115780000D01*
X196619605Y-115780000D01*
X197646712Y-116807107D01*
X197921338Y-116699274D01*
X198072216Y-116392616D01*
X198160369Y-116062415D01*
X198182409Y-115721361D01*
X198137489Y-115382561D01*
X198027336Y-115059034D01*
X197921338Y-114860726D01*
X197646712Y-114752893D01*
X196619605Y-115780000D01*
X196260395Y-115780000D01*
X196246253Y-115765858D01*
X196425858Y-115586253D01*
X196440000Y-115600395D01*
X197467107Y-114573288D01*
X197359274Y-114298662D01*
X197052616Y-114147784D01*
X196722415Y-114059631D01*
X196381361Y-114037591D01*
X196042561Y-114082511D01*
X196035000Y-114085085D01*
X196035000Y-114039801D01*
X197039802Y-113035000D01*
X197101939Y-113035000D01*
X197301898Y-112995226D01*
X197490256Y-112917205D01*
X197659774Y-112803937D01*
X197726397Y-112737314D01*
X202332905Y-112737314D01*
X202332905Y-113262686D01*
X202435400Y-113777963D01*
X202636451Y-114263343D01*
X202928332Y-114700174D01*
X203299826Y-115071668D01*
X203736657Y-115363549D01*
X204222037Y-115564600D01*
X204737314Y-115667095D01*
X205262686Y-115667095D01*
X205554160Y-115609117D01*
X211825000Y-115609117D01*
X211825000Y-115950883D01*
X211891675Y-116286081D01*
X212022463Y-116601831D01*
X212212337Y-116885998D01*
X212454002Y-117127663D01*
X212738169Y-117317537D01*
X213053919Y-117448325D01*
X213389117Y-117515000D01*
X213730883Y-117515000D01*
X214066081Y-117448325D01*
X214381831Y-117317537D01*
X214665998Y-117127663D01*
X214907663Y-116885998D01*
X215097537Y-116601831D01*
X215228325Y-116286081D01*
X215295000Y-115950883D01*
X215295000Y-115850000D01*
X227511928Y-115850000D01*
X227524188Y-115974482D01*
X227560498Y-116094180D01*
X227619463Y-116204494D01*
X227698815Y-116301185D01*
X227795506Y-116380537D01*
X227905820Y-116439502D01*
X228025518Y-116475812D01*
X228150000Y-116488072D01*
X228714250Y-116485000D01*
X228873000Y-116326250D01*
X228873000Y-115127000D01*
X229127000Y-115127000D01*
X229127000Y-116326250D01*
X229285750Y-116485000D01*
X229850000Y-116488072D01*
X229974482Y-116475812D01*
X230094180Y-116439502D01*
X230204494Y-116380537D01*
X230301185Y-116301185D01*
X230380537Y-116204494D01*
X230439502Y-116094180D01*
X230475812Y-115974482D01*
X230488072Y-115850000D01*
X230485000Y-115285750D01*
X230326250Y-115127000D01*
X229127000Y-115127000D01*
X228873000Y-115127000D01*
X227673750Y-115127000D01*
X227515000Y-115285750D01*
X227511928Y-115850000D01*
X215295000Y-115850000D01*
X215295000Y-115609117D01*
X215228325Y-115273919D01*
X215097537Y-114958169D01*
X214907663Y-114674002D01*
X214665998Y-114432337D01*
X214381831Y-114242463D01*
X214158606Y-114150000D01*
X227511928Y-114150000D01*
X227515000Y-114714250D01*
X227673750Y-114873000D01*
X228873000Y-114873000D01*
X228873000Y-113673750D01*
X229127000Y-113673750D01*
X229127000Y-114873000D01*
X230326250Y-114873000D01*
X230485000Y-114714250D01*
X230488072Y-114150000D01*
X230475812Y-114025518D01*
X230439502Y-113905820D01*
X230380537Y-113795506D01*
X230301185Y-113698815D01*
X230204494Y-113619463D01*
X230094180Y-113560498D01*
X229974482Y-113524188D01*
X229850000Y-113511928D01*
X229285750Y-113515000D01*
X229127000Y-113673750D01*
X228873000Y-113673750D01*
X228714250Y-113515000D01*
X228150000Y-113511928D01*
X228025518Y-113524188D01*
X227905820Y-113560498D01*
X227795506Y-113619463D01*
X227698815Y-113698815D01*
X227619463Y-113795506D01*
X227560498Y-113905820D01*
X227524188Y-114025518D01*
X227511928Y-114150000D01*
X214158606Y-114150000D01*
X214066081Y-114111675D01*
X213730883Y-114045000D01*
X213389117Y-114045000D01*
X213053919Y-114111675D01*
X212738169Y-114242463D01*
X212454002Y-114432337D01*
X212212337Y-114674002D01*
X212022463Y-114958169D01*
X211891675Y-115273919D01*
X211825000Y-115609117D01*
X205554160Y-115609117D01*
X205777963Y-115564600D01*
X206263343Y-115363549D01*
X206700174Y-115071668D01*
X207071668Y-114700174D01*
X207363549Y-114263343D01*
X207564600Y-113777963D01*
X207667095Y-113262686D01*
X207667095Y-112737314D01*
X207564600Y-112222037D01*
X207363549Y-111736657D01*
X207071668Y-111299826D01*
X206700174Y-110928332D01*
X206263343Y-110636451D01*
X205777963Y-110435400D01*
X205262686Y-110332905D01*
X204737314Y-110332905D01*
X204222037Y-110435400D01*
X203736657Y-110636451D01*
X203299826Y-110928332D01*
X202928332Y-111299826D01*
X202636451Y-111736657D01*
X202435400Y-112222037D01*
X202332905Y-112737314D01*
X197726397Y-112737314D01*
X197803937Y-112659774D01*
X197917205Y-112490256D01*
X197995226Y-112301898D01*
X198035000Y-112101939D01*
X198035000Y-111898061D01*
X197995226Y-111698102D01*
X197917205Y-111509744D01*
X197803937Y-111340226D01*
X197788483Y-111324772D01*
X197977537Y-111041831D01*
X198108325Y-110726081D01*
X198175000Y-110390883D01*
X198175000Y-110049117D01*
X198108325Y-109713919D01*
X197977537Y-109398169D01*
X197787663Y-109114002D01*
X197545998Y-108872337D01*
X197261831Y-108682463D01*
X196946081Y-108551675D01*
X196610883Y-108485000D01*
X196269117Y-108485000D01*
X195933919Y-108551675D01*
X195618169Y-108682463D01*
X195334002Y-108872337D01*
X195092337Y-109114002D01*
X194902463Y-109398169D01*
X194771675Y-109713919D01*
X194705000Y-110049117D01*
X194705000Y-110390883D01*
X194771675Y-110726081D01*
X194902463Y-111041831D01*
X195092337Y-111325998D01*
X195334002Y-111567663D01*
X195618169Y-111757537D01*
X195933919Y-111888325D01*
X195965680Y-111894643D01*
X195965000Y-111898061D01*
X195965000Y-111960198D01*
X194960199Y-112965000D01*
X194898061Y-112965000D01*
X194698102Y-113004774D01*
X194509744Y-113082795D01*
X194340226Y-113196063D01*
X194196063Y-113340226D01*
X194082795Y-113509744D01*
X194004774Y-113698102D01*
X193965000Y-113898061D01*
X182435355Y-113898061D01*
X182380537Y-113795506D01*
X182301185Y-113698815D01*
X182204494Y-113619463D01*
X182094180Y-113560498D01*
X181974482Y-113524188D01*
X181850000Y-113511928D01*
X181285750Y-113515000D01*
X181127000Y-113673750D01*
X180873000Y-113673750D01*
X180714250Y-113515000D01*
X180150000Y-113511928D01*
X180025518Y-113524188D01*
X179905820Y-113560498D01*
X179795506Y-113619463D01*
X179760000Y-113648602D01*
X179760000Y-112351398D01*
X179795506Y-112380537D01*
X179905820Y-112439502D01*
X180025518Y-112475812D01*
X180150000Y-112488072D01*
X181850000Y-112488072D01*
X181974482Y-112475812D01*
X182094180Y-112439502D01*
X182204494Y-112380537D01*
X182301185Y-112301185D01*
X182380537Y-112204494D01*
X182439502Y-112094180D01*
X182475812Y-111974482D01*
X182488072Y-111850000D01*
X182488072Y-110150000D01*
X182475812Y-110025518D01*
X182439502Y-109905820D01*
X182380537Y-109795506D01*
X182351398Y-109760000D01*
X186296289Y-109760000D01*
X186340226Y-109803937D01*
X186509744Y-109917205D01*
X186698102Y-109995226D01*
X186898061Y-110035000D01*
X187101939Y-110035000D01*
X187301898Y-109995226D01*
X187490256Y-109917205D01*
X187659774Y-109803937D01*
X187803937Y-109659774D01*
X187917205Y-109490256D01*
X187995226Y-109301898D01*
X188035000Y-109101939D01*
X188035000Y-108898061D01*
X187995226Y-108698102D01*
X187917205Y-108509744D01*
X187803937Y-108340226D01*
X187659774Y-108196063D01*
X187490256Y-108082795D01*
X187301898Y-108004774D01*
X187101939Y-107965000D01*
X186898061Y-107965000D01*
X186698102Y-108004774D01*
X186509744Y-108082795D01*
X186340226Y-108196063D01*
X186296289Y-108240000D01*
X180037333Y-108240000D01*
X180000000Y-108236323D01*
X179962667Y-108240000D01*
X179851014Y-108250997D01*
X179707753Y-108294454D01*
X179575724Y-108365026D01*
X179459999Y-108459999D01*
X179436201Y-108488997D01*
X178489002Y-109436196D01*
X178459999Y-109459999D01*
X178407321Y-109524188D01*
X178365026Y-109575724D01*
X178341647Y-109619463D01*
X178294454Y-109707754D01*
X178250997Y-109851015D01*
X178240000Y-109962668D01*
X178240000Y-109962678D01*
X178236324Y-110000000D01*
X178240000Y-110037322D01*
X178240001Y-120962668D01*
X178236324Y-121000000D01*
X178250998Y-121148985D01*
X178294454Y-121292246D01*
X178365026Y-121424276D01*
X178424982Y-121497332D01*
X178460000Y-121540001D01*
X178488998Y-121563799D01*
X179265199Y-122340000D01*
X178032279Y-122340000D01*
X177934576Y-122330420D01*
X177871643Y-122311420D01*
X177813594Y-122280554D01*
X177762657Y-122239011D01*
X177720752Y-122188356D01*
X177689485Y-122130529D01*
X177670044Y-122067728D01*
X177660000Y-121972165D01*
X177660000Y-103256602D01*
X181923003Y-103256602D01*
X182039275Y-103538389D01*
X182357860Y-103696257D01*
X182701122Y-103788938D01*
X183055869Y-103812873D01*
X183408470Y-103767139D01*
X183745373Y-103653495D01*
X183960725Y-103538389D01*
X184076997Y-103256602D01*
X183000000Y-102179605D01*
X181923003Y-103256602D01*
X177660000Y-103256602D01*
X177660000Y-102055869D01*
X181187127Y-102055869D01*
X181232861Y-102408470D01*
X181346505Y-102745373D01*
X181461611Y-102960725D01*
X181743398Y-103076997D01*
X182820395Y-102000000D01*
X183179605Y-102000000D01*
X184256602Y-103076997D01*
X184538389Y-102960725D01*
X184696257Y-102642140D01*
X184788938Y-102298878D01*
X184812873Y-101944131D01*
X184767139Y-101591530D01*
X184653495Y-101254627D01*
X184538389Y-101039275D01*
X184256602Y-100923003D01*
X183179605Y-102000000D01*
X182820395Y-102000000D01*
X181743398Y-100923003D01*
X181461611Y-101039275D01*
X181303743Y-101357860D01*
X181211062Y-101701122D01*
X181187127Y-102055869D01*
X177660000Y-102055869D01*
X177660000Y-101032279D01*
X177669580Y-100934576D01*
X177688580Y-100871644D01*
X177719445Y-100813595D01*
X177760989Y-100762657D01*
X177811644Y-100720752D01*
X177869471Y-100689485D01*
X177932272Y-100670044D01*
X178027835Y-100660000D01*
X181957415Y-100660000D01*
X181923003Y-100743398D01*
X183000000Y-101820395D01*
X184076997Y-100743398D01*
X184042585Y-100660000D01*
X186787344Y-100660000D01*
X186597965Y-100849379D01*
X186400429Y-101145012D01*
X186264365Y-101473501D01*
X186195000Y-101822223D01*
X186195000Y-102177777D01*
X186264365Y-102526499D01*
X186400429Y-102854988D01*
X186597965Y-103150621D01*
X186849379Y-103402035D01*
X187145012Y-103599571D01*
X187473501Y-103735635D01*
X187822223Y-103805000D01*
X188177777Y-103805000D01*
X188526499Y-103735635D01*
X188621488Y-103696289D01*
X192936200Y-108011002D01*
X192959999Y-108040001D01*
X192988997Y-108063799D01*
X193075724Y-108134974D01*
X193207753Y-108205546D01*
X193351014Y-108249003D01*
X193500000Y-108263677D01*
X193537333Y-108260000D01*
X210525199Y-108260000D01*
X211917286Y-109652088D01*
X211891675Y-109713919D01*
X211825000Y-110049117D01*
X211825000Y-110390883D01*
X211891675Y-110726081D01*
X212022463Y-111041831D01*
X212212337Y-111325998D01*
X212454002Y-111567663D01*
X212738169Y-111757537D01*
X213053919Y-111888325D01*
X213389117Y-111955000D01*
X213730883Y-111955000D01*
X214066081Y-111888325D01*
X214381831Y-111757537D01*
X214665998Y-111567663D01*
X214907663Y-111325998D01*
X215097537Y-111041831D01*
X215228325Y-110726081D01*
X215295000Y-110390883D01*
X215295000Y-110150000D01*
X227511928Y-110150000D01*
X227511928Y-111850000D01*
X227524188Y-111974482D01*
X227560498Y-112094180D01*
X227619463Y-112204494D01*
X227698815Y-112301185D01*
X227795506Y-112380537D01*
X227905820Y-112439502D01*
X228025518Y-112475812D01*
X228150000Y-112488072D01*
X229850000Y-112488072D01*
X229974482Y-112475812D01*
X230094180Y-112439502D01*
X230204494Y-112380537D01*
X230301185Y-112301185D01*
X230380537Y-112204494D01*
X230439502Y-112094180D01*
X230475812Y-111974482D01*
X230488072Y-111850000D01*
X230488072Y-110150000D01*
X230475812Y-110025518D01*
X230439502Y-109905820D01*
X230380537Y-109795506D01*
X230301185Y-109698815D01*
X230204494Y-109619463D01*
X230094180Y-109560498D01*
X229974482Y-109524188D01*
X229850000Y-109511928D01*
X228150000Y-109511928D01*
X228025518Y-109524188D01*
X227905820Y-109560498D01*
X227795506Y-109619463D01*
X227698815Y-109698815D01*
X227619463Y-109795506D01*
X227560498Y-109905820D01*
X227524188Y-110025518D01*
X227511928Y-110150000D01*
X215295000Y-110150000D01*
X215295000Y-110049117D01*
X215228325Y-109713919D01*
X215097537Y-109398169D01*
X214907663Y-109114002D01*
X214665998Y-108872337D01*
X214381831Y-108682463D01*
X214066081Y-108551675D01*
X213730883Y-108485000D01*
X213389117Y-108485000D01*
X213053919Y-108551675D01*
X212992088Y-108577286D01*
X211403804Y-106989003D01*
X211380001Y-106959999D01*
X211264276Y-106865026D01*
X211245253Y-106854858D01*
X210290000Y-105899605D01*
X210275858Y-105913748D01*
X210096253Y-105734143D01*
X210110395Y-105720000D01*
X210469605Y-105720000D01*
X211496712Y-106747107D01*
X211771338Y-106639274D01*
X211922216Y-106332616D01*
X212010369Y-106002415D01*
X212032409Y-105661361D01*
X211987489Y-105322561D01*
X211877336Y-104999034D01*
X211771338Y-104800726D01*
X211496712Y-104692893D01*
X210469605Y-105720000D01*
X210110395Y-105720000D01*
X209083288Y-104692893D01*
X208808662Y-104800726D01*
X208657784Y-105107384D01*
X208569631Y-105437585D01*
X208547591Y-105778639D01*
X208592511Y-106117439D01*
X208702664Y-106440966D01*
X208808662Y-106639274D01*
X209065188Y-106740000D01*
X201115125Y-106740000D01*
X201247537Y-106541831D01*
X201378325Y-106226081D01*
X201445000Y-105890883D01*
X201445000Y-105549117D01*
X201378325Y-105213919D01*
X201247537Y-104898169D01*
X201057663Y-104614002D01*
X200815998Y-104372337D01*
X200531831Y-104182463D01*
X200216081Y-104051675D01*
X199880883Y-103985000D01*
X199539117Y-103985000D01*
X199203919Y-104051675D01*
X198888169Y-104182463D01*
X198604002Y-104372337D01*
X198362337Y-104614002D01*
X198172463Y-104898169D01*
X198041675Y-105213919D01*
X197975000Y-105549117D01*
X197975000Y-105890883D01*
X198041675Y-106226081D01*
X198172463Y-106541831D01*
X198304875Y-106740000D01*
X193814802Y-106740000D01*
X190903919Y-103829117D01*
X203265000Y-103829117D01*
X203265000Y-104170883D01*
X203331675Y-104506081D01*
X203462463Y-104821831D01*
X203652337Y-105105998D01*
X203894002Y-105347663D01*
X204178169Y-105537537D01*
X204493919Y-105668325D01*
X204829117Y-105735000D01*
X205170883Y-105735000D01*
X205506081Y-105668325D01*
X205821831Y-105537537D01*
X206105998Y-105347663D01*
X206347663Y-105105998D01*
X206537537Y-104821831D01*
X206665339Y-104513288D01*
X209262893Y-104513288D01*
X210290000Y-105540395D01*
X211317107Y-104513288D01*
X211209274Y-104238662D01*
X210902616Y-104087784D01*
X210572415Y-103999631D01*
X210231361Y-103977591D01*
X209892561Y-104022511D01*
X209569034Y-104132664D01*
X209370726Y-104238662D01*
X209262893Y-104513288D01*
X206665339Y-104513288D01*
X206668325Y-104506081D01*
X206735000Y-104170883D01*
X206735000Y-103829117D01*
X206668325Y-103493919D01*
X206537537Y-103178169D01*
X206347663Y-102894002D01*
X206105998Y-102652337D01*
X205821831Y-102462463D01*
X205506081Y-102331675D01*
X205170883Y-102265000D01*
X204829117Y-102265000D01*
X204493919Y-102331675D01*
X204178169Y-102462463D01*
X203894002Y-102652337D01*
X203652337Y-102894002D01*
X203462463Y-103178169D01*
X203331675Y-103493919D01*
X203265000Y-103829117D01*
X190903919Y-103829117D01*
X189696289Y-102621488D01*
X189735635Y-102526499D01*
X189805000Y-102177777D01*
X189805000Y-101822223D01*
X189735635Y-101473501D01*
X189599571Y-101145012D01*
X189402035Y-100849379D01*
X189212656Y-100660000D01*
X191787344Y-100660000D01*
X191597965Y-100849379D01*
X191400429Y-101145012D01*
X191264365Y-101473501D01*
X191195000Y-101822223D01*
X191195000Y-102177777D01*
X191264365Y-102526499D01*
X191400429Y-102854988D01*
X191597965Y-103150621D01*
X191849379Y-103402035D01*
X192145012Y-103599571D01*
X192473501Y-103735635D01*
X192822223Y-103805000D01*
X193177777Y-103805000D01*
X193526499Y-103735635D01*
X193854988Y-103599571D01*
X194150621Y-103402035D01*
X194402035Y-103150621D01*
X194599571Y-102854988D01*
X194735635Y-102526499D01*
X194805000Y-102177777D01*
X194805000Y-101822223D01*
X194735635Y-101473501D01*
X194599571Y-101145012D01*
X194402035Y-100849379D01*
X194212656Y-100660000D01*
X197967581Y-100660000D01*
X198000000Y-100663193D01*
X198032419Y-100660000D01*
X198129383Y-100650450D01*
X198253793Y-100612710D01*
X198368450Y-100551425D01*
X198468948Y-100468948D01*
X198551425Y-100368450D01*
X198612710Y-100253793D01*
X198650450Y-100129383D01*
X198650685Y-100127000D01*
X211349315Y-100127000D01*
X211349550Y-100129383D01*
G37*
%TD.AperFunction*%
%TD*%
M02*
