M48
; DRILL file {KiCad 5.1.9-73d0e3b20d~88~ubuntu20.04.1} date Sun May 23 20:46:29 2021
; FORMAT={-:-/ absolute / inch / decimal}
; #@! TF.CreationDate,2021-05-23T20:46:29+02:00
; #@! TF.GenerationSoftware,Kicad,Pcbnew,5.1.9-73d0e3b20d~88~ubuntu20.04.1
; #@! TF.FileFunction,Plated,1,2,PTH
FMAT,2
INCH
T1C0.0157
T2C0.0315
T3C0.0354
T4C0.0394
T5C0.0512
T6C0.0591
%
G90
G05
T1
X7.3622Y-4.2913
X7.3622Y-4.4488
X7.6772Y-4.4882
X7.7559Y-4.4094
T2
X7.3228Y-4.685
X7.3228Y-4.7835
X7.5591Y-4.685
X7.5591Y-4.7835
T3
X8.0315Y-4.7244
X8.1315Y-4.7244
T4
X7.126Y-4.3701
X7.126Y-4.5276
X7.126Y-4.685
X8.7795Y-4.6244
X8.7795Y-4.7244
X9.0157Y-4.3701
X9.0157Y-4.5276
X9.0157Y-4.685
T5
X7.2047Y-4.0157
X7.4016Y-4.0157
X7.5984Y-4.0157
X8.5433Y-4.0157
X8.7402Y-4.0157
X8.937Y-4.0157
T6
X7.7339Y-4.3394
X7.7339Y-4.5583
X7.8626Y-4.1622
X7.8626Y-4.7354
X8.0709Y-4.0945
X8.2791Y-4.1622
X8.2791Y-4.7354
X8.4079Y-4.3394
X8.4079Y-4.5583
T0
M30
